%
M48
M72
T01C0.0197
T02C0.0276
T03C0.0315
T04C0.0400
%
T01
X4020Y1760
X8120Y4110
X8620Y5060
X8970Y5410
X9370Y5060
X10470Y5360
X10820Y5010
X12170Y5660
X12920Y5660
X13470Y5510
X14620Y6160
X13670Y6910
X13170Y6910
X13170Y7410
X13670Y7410
X14770Y7660
X14420Y8260
X12020Y7560
X10670Y7160
X10070Y7210
X9020Y6810
X8670Y7110
X7520Y7660
X8070Y7760
X8220Y8260
X7370Y6810
X8670Y6010
X12120Y6410
X11020Y3660
T02
X4820Y1910
X4820Y910
T03
X6770Y5410
X6770Y6410
X6770Y7410
T04
X1420Y910
X1420Y1910
X1420Y2910
X1420Y3910
X3420Y4160
X4420Y4160
X5420Y4160
X6420Y4160
X6420Y2910
X7420Y2910
X8420Y2910
X8420Y1910
X7420Y1910
X6420Y1910
X10420Y1910
X11420Y1910
X12420Y1910
X13420Y1910
X14420Y1910
X15420Y1910
X16420Y1910
X17420Y1910
X18420Y1910
X18420Y910
X17420Y910
X16420Y910
X15420Y910
X14420Y910
X13420Y910
X12420Y910
X11420Y910
X10420Y910
X10420Y2910
X11420Y2910
X12420Y2910
X13420Y2910
X14420Y2910
X15420Y2910
X16420Y2910
X17420Y2910
X18420Y2910
X14920Y4160
X13920Y4160
X12920Y4160
X16420Y4910
X16420Y5910
X16420Y6910
X16420Y7910
X5120Y7910
X3320Y7910
X1520Y7910
X1520Y6910
X3320Y6910
X5120Y6910
X5120Y5910
X3320Y5910
X1520Y5910
M30
