G75*
%MOIN*%
%OFA0B0*%
%FSLAX25Y25*%
%IPPOS*%
%LPD*%
%AMOC8*
5,1,8,0,0,1.08239X$1,22.5*
%
%ADD10R,0.02200X0.05000*%
%ADD11R,0.05000X0.02200*%
%ADD12R,0.01181X0.02362*%
%ADD13R,0.02362X0.01181*%
%ADD14R,0.12992X0.12992*%
%ADD15R,0.01713X0.01713*%
%ADD16R,0.06000X0.06000*%
%ADD17C,0.07400*%
%ADD18C,0.06000*%
%ADD19R,0.05512X0.01378*%
%ADD20R,0.07480X0.07087*%
%ADD21R,0.07480X0.07480*%
%ADD22R,0.07400X0.07400*%
%ADD23OC8,0.07400*%
%ADD24R,0.03150X0.04724*%
%ADD25R,0.04724X0.04724*%
%ADD26R,0.04724X0.04724*%
%ADD27R,0.04724X0.03150*%
%ADD28R,0.06500X0.06500*%
%ADD29C,0.06500*%
%ADD30C,0.01200*%
%ADD31C,0.03369*%
%ADD32C,0.01000*%
%ADD33C,0.05600*%
%ADD34C,0.05000*%
%ADD35C,0.01600*%
%ADD36C,0.00800*%
%ADD37C,0.02400*%
%ADD38C,0.03000*%
D10*
X0086672Y0044700D03*
X0089821Y0044700D03*
X0092971Y0044700D03*
X0096120Y0044700D03*
X0099270Y0044700D03*
X0102420Y0044700D03*
X0105569Y0044700D03*
X0108719Y0044700D03*
X0108719Y0078500D03*
X0105569Y0078500D03*
X0102420Y0078500D03*
X0099270Y0078500D03*
X0096120Y0078500D03*
X0092971Y0078500D03*
X0089821Y0078500D03*
X0086672Y0078500D03*
D11*
X0080795Y0072624D03*
X0080795Y0069474D03*
X0080795Y0066324D03*
X0080795Y0063175D03*
X0080795Y0060025D03*
X0080795Y0056876D03*
X0080795Y0053726D03*
X0080795Y0050576D03*
X0114595Y0050576D03*
X0114595Y0053726D03*
X0114595Y0056876D03*
X0114595Y0060025D03*
X0114595Y0063175D03*
X0114595Y0066324D03*
X0114595Y0069474D03*
X0114595Y0072624D03*
D12*
X0128290Y0080655D03*
X0130258Y0080655D03*
X0132227Y0080655D03*
X0134195Y0080655D03*
X0136164Y0080655D03*
X0138132Y0080655D03*
X0140101Y0080655D03*
X0140101Y0062545D03*
X0138132Y0062545D03*
X0136164Y0062545D03*
X0134195Y0062545D03*
X0132227Y0062545D03*
X0130258Y0062545D03*
X0128290Y0062545D03*
D13*
X0125140Y0065694D03*
X0125140Y0067663D03*
X0125140Y0069631D03*
X0125140Y0071600D03*
X0125140Y0073569D03*
X0125140Y0075537D03*
X0125140Y0077506D03*
X0143250Y0077506D03*
X0143250Y0075537D03*
X0143250Y0073569D03*
X0143250Y0071600D03*
X0143250Y0069631D03*
X0143250Y0067663D03*
X0143250Y0065694D03*
D14*
X0134195Y0071600D03*
D15*
X0125918Y0063322D03*
D16*
X0014195Y0009100D03*
X0014195Y0019100D03*
X0014195Y0029100D03*
X0014195Y0039100D03*
D17*
X0034195Y0041600D03*
X0044195Y0041600D03*
X0054195Y0041600D03*
X0067695Y0054100D03*
X0067695Y0064100D03*
X0067695Y0074100D03*
X0129195Y0041600D03*
X0139195Y0041600D03*
X0149195Y0041600D03*
X0144195Y0029100D03*
X0134195Y0029100D03*
X0124195Y0029100D03*
X0114195Y0029100D03*
X0104195Y0029100D03*
X0104195Y0019100D03*
X0114195Y0019100D03*
X0124195Y0019100D03*
X0134195Y0019100D03*
X0144195Y0019100D03*
X0154195Y0019100D03*
X0164195Y0019100D03*
X0174195Y0019100D03*
X0184195Y0019100D03*
X0184195Y0009100D03*
X0174195Y0009100D03*
X0164195Y0009100D03*
X0154195Y0009100D03*
X0144195Y0009100D03*
X0134195Y0009100D03*
X0124195Y0009100D03*
X0114195Y0009100D03*
X0104195Y0009100D03*
X0154195Y0029100D03*
X0164195Y0029100D03*
X0174195Y0029100D03*
X0184195Y0029100D03*
X0164195Y0059100D03*
X0164195Y0069100D03*
X0164195Y0079100D03*
D18*
X0052695Y0079100D02*
X0049695Y0079100D01*
X0034695Y0079100D02*
X0031695Y0079100D01*
X0016695Y0079100D02*
X0013695Y0079100D01*
X0013695Y0069100D02*
X0016695Y0069100D01*
X0031695Y0069100D02*
X0034695Y0069100D01*
X0049695Y0069100D02*
X0052695Y0069100D01*
X0052695Y0059100D02*
X0049695Y0059100D01*
X0034695Y0059100D02*
X0031695Y0059100D01*
X0016695Y0059100D02*
X0013695Y0059100D01*
D19*
X0173762Y0059041D03*
X0173762Y0061600D03*
X0173762Y0064159D03*
X0173762Y0066718D03*
X0173762Y0056482D03*
D20*
X0184195Y0045852D03*
X0184195Y0077348D03*
D21*
X0184195Y0066600D03*
X0184195Y0056600D03*
D22*
X0164195Y0049100D03*
X0064195Y0041600D03*
D23*
X0064195Y0029100D03*
X0074195Y0029100D03*
X0084195Y0029100D03*
X0084195Y0019100D03*
X0074195Y0019100D03*
X0064195Y0019100D03*
D24*
X0044739Y0031600D03*
X0037652Y0031600D03*
X0136152Y0049600D03*
X0143239Y0049600D03*
X0143152Y0056100D03*
X0150239Y0056100D03*
D25*
X0031329Y0031600D03*
X0023061Y0031600D03*
X0022561Y0016600D03*
X0030829Y0016600D03*
D26*
G36*
X0115272Y0037337D02*
X0111932Y0040677D01*
X0115272Y0044017D01*
X0118612Y0040677D01*
X0115272Y0037337D01*
G37*
G36*
X0121118Y0043183D02*
X0117778Y0046523D01*
X0121118Y0049863D01*
X0124458Y0046523D01*
X0121118Y0043183D01*
G37*
D27*
X0152195Y0061557D03*
X0152195Y0068643D03*
X0153195Y0074057D03*
X0153195Y0081143D03*
D28*
X0048195Y0009100D03*
D29*
X0048195Y0019100D03*
D30*
X0048106Y0019189D02*
X0048106Y0023950D01*
X0047814Y0023950D01*
X0047060Y0023831D01*
X0046334Y0023595D01*
X0045653Y0023248D01*
X0045036Y0022799D01*
X0044496Y0022260D01*
X0044047Y0021642D01*
X0043701Y0020962D01*
X0043465Y0020236D01*
X0043408Y0019880D01*
X0042396Y0020893D01*
X0040968Y0021484D01*
X0039423Y0021484D01*
X0037995Y0020893D01*
X0036902Y0019800D01*
X0036819Y0019600D01*
X0035391Y0019600D01*
X0035391Y0019873D01*
X0034103Y0021162D01*
X0027556Y0021162D01*
X0026695Y0020302D01*
X0025835Y0021162D01*
X0019288Y0021162D01*
X0018795Y0020670D01*
X0018795Y0022311D01*
X0018686Y0022718D01*
X0018476Y0023082D01*
X0018178Y0023380D01*
X0017813Y0023591D01*
X0017406Y0023700D01*
X0014595Y0023700D01*
X0014595Y0019500D01*
X0013795Y0019500D01*
X0013795Y0018700D01*
X0009595Y0018700D01*
X0009595Y0015889D01*
X0009704Y0015482D01*
X0009915Y0015118D01*
X0010213Y0014820D01*
X0010578Y0014609D01*
X0010985Y0014500D01*
X0013795Y0014500D01*
X0013795Y0018700D01*
X0014595Y0018700D01*
X0014595Y0014500D01*
X0017406Y0014500D01*
X0017813Y0014609D01*
X0017999Y0014717D01*
X0017999Y0014647D01*
X0017653Y0014300D01*
X0010284Y0014300D01*
X0009195Y0013211D01*
X0009195Y0034989D01*
X0010284Y0033900D01*
X0015153Y0033900D01*
X0015353Y0033700D01*
X0014595Y0033700D01*
X0014595Y0029500D01*
X0013795Y0029500D01*
X0013795Y0028700D01*
X0009595Y0028700D01*
X0009595Y0025889D01*
X0009704Y0025482D01*
X0009915Y0025118D01*
X0010213Y0024820D01*
X0010578Y0024609D01*
X0010985Y0024500D01*
X0013795Y0024500D01*
X0013795Y0028700D01*
X0014595Y0028700D01*
X0014595Y0024500D01*
X0017406Y0024500D01*
X0017813Y0024609D01*
X0018178Y0024820D01*
X0018476Y0025118D01*
X0018686Y0025482D01*
X0018795Y0025889D01*
X0018795Y0028030D01*
X0019788Y0027038D01*
X0026335Y0027038D01*
X0027195Y0027898D01*
X0028056Y0027038D01*
X0034603Y0027038D01*
X0034884Y0027319D01*
X0035166Y0027038D01*
X0040138Y0027038D01*
X0041427Y0028327D01*
X0041427Y0034873D01*
X0040138Y0036162D01*
X0036485Y0036162D01*
X0037537Y0036598D01*
X0039195Y0038256D01*
X0040853Y0036598D01*
X0043022Y0035700D01*
X0045369Y0035700D01*
X0047537Y0036598D01*
X0049195Y0038256D01*
X0050853Y0036598D01*
X0053022Y0035700D01*
X0055369Y0035700D01*
X0057537Y0036598D01*
X0058295Y0037356D01*
X0058295Y0036989D01*
X0059584Y0035700D01*
X0068807Y0035700D01*
X0070095Y0036989D01*
X0070095Y0046211D01*
X0068807Y0047500D01*
X0066028Y0047500D01*
X0064484Y0049044D01*
X0066522Y0048200D01*
X0068869Y0048200D01*
X0071037Y0049098D01*
X0072697Y0050758D01*
X0073095Y0051719D01*
X0073095Y0035000D01*
X0071751Y0035000D01*
X0069195Y0032444D01*
X0066639Y0035000D01*
X0061751Y0035000D01*
X0058295Y0031544D01*
X0058295Y0026656D01*
X0061276Y0023676D01*
X0058895Y0021295D01*
X0058895Y0019500D01*
X0063795Y0019500D01*
X0063795Y0018700D01*
X0058895Y0018700D01*
X0058895Y0016905D01*
X0062000Y0013800D01*
X0063795Y0013800D01*
X0063795Y0018700D01*
X0064595Y0018700D01*
X0064595Y0013800D01*
X0066391Y0013800D01*
X0068771Y0016180D01*
X0071751Y0013200D01*
X0076639Y0013200D01*
X0079195Y0015756D01*
X0081751Y0013200D01*
X0086639Y0013200D01*
X0090095Y0016656D01*
X0090095Y0020757D01*
X0093239Y0023901D01*
X0093695Y0025003D01*
X0093695Y0033197D01*
X0093239Y0034299D01*
X0092821Y0034717D01*
X0092821Y0040000D01*
X0098132Y0040000D01*
X0098732Y0040600D01*
X0099270Y0040600D01*
X0099270Y0041138D01*
X0099270Y0041138D01*
X0099270Y0040600D01*
X0099808Y0040600D01*
X0100408Y0040000D01*
X0108254Y0040000D01*
X0107995Y0039893D01*
X0106902Y0038800D01*
X0106311Y0037373D01*
X0106311Y0035827D01*
X0106902Y0034400D01*
X0107995Y0033307D01*
X0109423Y0032716D01*
X0110316Y0032716D01*
X0110153Y0032553D01*
X0109662Y0031878D01*
X0109284Y0031134D01*
X0109195Y0030863D01*
X0109107Y0031134D01*
X0108728Y0031878D01*
X0108238Y0032553D01*
X0107648Y0033143D01*
X0106973Y0033633D01*
X0106230Y0034012D01*
X0105436Y0034269D01*
X0104612Y0034400D01*
X0104595Y0034400D01*
X0104595Y0029500D01*
X0103795Y0029500D01*
X0103795Y0028700D01*
X0098895Y0028700D01*
X0098895Y0028683D01*
X0099026Y0027859D01*
X0099284Y0027066D01*
X0099662Y0026322D01*
X0100153Y0025647D01*
X0100743Y0025057D01*
X0101417Y0024567D01*
X0101668Y0024439D01*
X0100853Y0024102D01*
X0099193Y0022442D01*
X0098295Y0020274D01*
X0098295Y0017926D01*
X0099193Y0015758D01*
X0100851Y0014100D01*
X0099193Y0012442D01*
X0098295Y0010274D01*
X0098295Y0007926D01*
X0099193Y0005758D01*
X0100851Y0004100D01*
X0052807Y0004100D01*
X0053645Y0004939D01*
X0053645Y0013261D01*
X0052357Y0014550D01*
X0049887Y0014550D01*
X0050057Y0014605D01*
X0050737Y0014952D01*
X0051355Y0015401D01*
X0051895Y0015940D01*
X0052343Y0016558D01*
X0052690Y0017238D01*
X0052926Y0017964D01*
X0053045Y0018718D01*
X0053045Y0019011D01*
X0048284Y0019011D01*
X0048284Y0019189D01*
X0048106Y0019189D01*
X0048284Y0019189D02*
X0048284Y0023950D01*
X0048577Y0023950D01*
X0049331Y0023831D01*
X0050057Y0023595D01*
X0050737Y0023248D01*
X0051355Y0022799D01*
X0051895Y0022260D01*
X0052343Y0021642D01*
X0052690Y0020962D01*
X0052926Y0020236D01*
X0053045Y0019482D01*
X0053045Y0019189D01*
X0048284Y0019189D01*
X0048284Y0019578D02*
X0048106Y0019578D01*
X0048106Y0020776D02*
X0048284Y0020776D01*
X0048284Y0021975D02*
X0048106Y0021975D01*
X0048106Y0023173D02*
X0048284Y0023173D01*
X0050840Y0023173D02*
X0060773Y0023173D01*
X0060580Y0024372D02*
X0009195Y0024372D01*
X0009195Y0023173D02*
X0010006Y0023173D01*
X0009915Y0023082D02*
X0009704Y0022718D01*
X0009595Y0022311D01*
X0009595Y0019500D01*
X0013795Y0019500D01*
X0013795Y0023700D01*
X0010985Y0023700D01*
X0010578Y0023591D01*
X0010213Y0023380D01*
X0009915Y0023082D01*
X0009595Y0021975D02*
X0009195Y0021975D01*
X0009195Y0020776D02*
X0009595Y0020776D01*
X0009595Y0019578D02*
X0009195Y0019578D01*
X0009195Y0018379D02*
X0009595Y0018379D01*
X0009595Y0017181D02*
X0009195Y0017181D01*
X0009195Y0015982D02*
X0009595Y0015982D01*
X0009195Y0014784D02*
X0010275Y0014784D01*
X0009569Y0013585D02*
X0009195Y0013585D01*
X0013795Y0014784D02*
X0014595Y0014784D01*
X0014595Y0015982D02*
X0013795Y0015982D01*
X0013795Y0017181D02*
X0014595Y0017181D01*
X0014595Y0018379D02*
X0013795Y0018379D01*
X0013795Y0019578D02*
X0014595Y0019578D01*
X0014595Y0020776D02*
X0013795Y0020776D01*
X0013795Y0021975D02*
X0014595Y0021975D01*
X0014595Y0023173D02*
X0013795Y0023173D01*
X0018385Y0023173D02*
X0045550Y0023173D01*
X0044289Y0021975D02*
X0018795Y0021975D01*
X0018795Y0020776D02*
X0018902Y0020776D01*
X0026221Y0020776D02*
X0027170Y0020776D01*
X0034489Y0020776D02*
X0037878Y0020776D01*
X0042512Y0020776D02*
X0043640Y0020776D01*
X0040195Y0017600D02*
X0039329Y0016734D01*
X0050407Y0014784D02*
X0061016Y0014784D01*
X0059818Y0015982D02*
X0051925Y0015982D01*
X0052661Y0017181D02*
X0058895Y0017181D01*
X0058895Y0018379D02*
X0052992Y0018379D01*
X0053030Y0019578D02*
X0058895Y0019578D01*
X0058895Y0020776D02*
X0052750Y0020776D01*
X0052102Y0021975D02*
X0059575Y0021975D01*
X0059381Y0025570D02*
X0018710Y0025570D01*
X0018795Y0026769D02*
X0058295Y0026769D01*
X0058295Y0027967D02*
X0047306Y0027967D01*
X0047296Y0027957D02*
X0047594Y0028255D01*
X0047804Y0028620D01*
X0047913Y0029027D01*
X0047913Y0031413D01*
X0044926Y0031413D01*
X0044926Y0031787D01*
X0047913Y0031787D01*
X0047913Y0034173D01*
X0047804Y0034580D01*
X0047594Y0034945D01*
X0047296Y0035243D01*
X0046931Y0035453D01*
X0046524Y0035562D01*
X0044926Y0035562D01*
X0044926Y0031787D01*
X0044551Y0031787D01*
X0044551Y0031413D01*
X0041564Y0031413D01*
X0041564Y0029027D01*
X0041673Y0028620D01*
X0041883Y0028255D01*
X0042181Y0027957D01*
X0042546Y0027747D01*
X0042953Y0027638D01*
X0044551Y0027638D01*
X0044551Y0031413D01*
X0044926Y0031413D01*
X0044926Y0027638D01*
X0046524Y0027638D01*
X0046931Y0027747D01*
X0047296Y0027957D01*
X0047913Y0029166D02*
X0058295Y0029166D01*
X0058295Y0030364D02*
X0047913Y0030364D01*
X0047913Y0032761D02*
X0059513Y0032761D01*
X0058314Y0031563D02*
X0044926Y0031563D01*
X0044551Y0031563D02*
X0041427Y0031563D01*
X0041564Y0031787D02*
X0044551Y0031787D01*
X0044551Y0035562D01*
X0042953Y0035562D01*
X0042546Y0035453D01*
X0042181Y0035243D01*
X0041883Y0034945D01*
X0041673Y0034580D01*
X0041564Y0034173D01*
X0041564Y0031787D01*
X0041564Y0032761D02*
X0041427Y0032761D01*
X0044551Y0032761D02*
X0044926Y0032761D01*
X0044926Y0033960D02*
X0044551Y0033960D01*
X0044551Y0035158D02*
X0044926Y0035158D01*
X0046955Y0036357D02*
X0051436Y0036357D01*
X0049896Y0037555D02*
X0048494Y0037555D01*
X0047380Y0035158D02*
X0073095Y0035158D01*
X0073095Y0036357D02*
X0069463Y0036357D01*
X0070095Y0037555D02*
X0073095Y0037555D01*
X0073095Y0038754D02*
X0070095Y0038754D01*
X0070095Y0039952D02*
X0073095Y0039952D01*
X0073095Y0041151D02*
X0070095Y0041151D01*
X0070095Y0042349D02*
X0073095Y0042349D01*
X0073095Y0043548D02*
X0070095Y0043548D01*
X0070095Y0044746D02*
X0073095Y0044746D01*
X0073095Y0045945D02*
X0070095Y0045945D01*
X0069163Y0047143D02*
X0073095Y0047143D01*
X0073095Y0048342D02*
X0069212Y0048342D01*
X0071480Y0049540D02*
X0073095Y0049540D01*
X0073095Y0050739D02*
X0072678Y0050739D01*
X0066179Y0048342D02*
X0065186Y0048342D01*
X0081195Y0041100D02*
X0084795Y0044700D01*
X0086672Y0044700D01*
X0086672Y0050576D01*
X0086195Y0050600D01*
X0089695Y0054100D02*
X0104195Y0054100D01*
X0104695Y0053600D01*
X0108219Y0050576D02*
X0108195Y0050100D01*
X0108219Y0050576D02*
X0114595Y0050576D01*
X0113619Y0050600D01*
X0119295Y0050739D02*
X0119731Y0050739D01*
X0120136Y0051144D02*
X0119295Y0050303D01*
X0119295Y0060683D01*
X0120423Y0060216D01*
X0121968Y0060216D01*
X0123396Y0060807D01*
X0123927Y0061338D01*
X0124079Y0061186D01*
X0124444Y0060975D01*
X0124851Y0060866D01*
X0125499Y0060866D01*
X0125499Y0060452D01*
X0126527Y0059425D01*
X0125902Y0058800D01*
X0125311Y0057373D01*
X0125311Y0055827D01*
X0125902Y0054400D01*
X0126995Y0053307D01*
X0128423Y0052716D01*
X0129968Y0052716D01*
X0131257Y0053250D01*
X0131402Y0052900D01*
X0132377Y0051925D01*
X0132377Y0046668D01*
X0130369Y0047500D01*
X0128022Y0047500D01*
X0126059Y0046687D01*
X0126059Y0046734D01*
X0125950Y0047141D01*
X0125739Y0047505D01*
X0124331Y0048914D01*
X0121940Y0046523D01*
X0123997Y0044467D01*
X0123295Y0042774D01*
X0123295Y0040426D01*
X0124193Y0038258D01*
X0125853Y0036598D01*
X0128022Y0035700D01*
X0130369Y0035700D01*
X0132537Y0036598D01*
X0134197Y0038258D01*
X0134535Y0039073D01*
X0134662Y0038822D01*
X0135153Y0038147D01*
X0135743Y0037557D01*
X0136417Y0037067D01*
X0137161Y0036688D01*
X0137954Y0036430D01*
X0138778Y0036300D01*
X0138795Y0036300D01*
X0138795Y0041200D01*
X0139595Y0041200D01*
X0139595Y0036300D01*
X0139612Y0036300D01*
X0140436Y0036430D01*
X0141230Y0036688D01*
X0141973Y0037067D01*
X0142648Y0037557D01*
X0143238Y0038147D01*
X0143728Y0038822D01*
X0143856Y0039073D01*
X0144193Y0038258D01*
X0145853Y0036598D01*
X0148022Y0035700D01*
X0150369Y0035700D01*
X0152537Y0036598D01*
X0154197Y0038258D01*
X0155095Y0040426D01*
X0155095Y0042774D01*
X0154954Y0043116D01*
X0157938Y0046100D01*
X0158295Y0046100D01*
X0158295Y0044489D01*
X0159584Y0043200D01*
X0168807Y0043200D01*
X0170095Y0044489D01*
X0170095Y0050757D01*
X0172820Y0053482D01*
X0174359Y0053482D01*
X0174627Y0053593D01*
X0177429Y0053593D01*
X0178255Y0054419D01*
X0178255Y0051949D01*
X0179508Y0050696D01*
X0179473Y0050676D01*
X0179175Y0050378D01*
X0178964Y0050013D01*
X0178855Y0049606D01*
X0178855Y0046452D01*
X0183595Y0046452D01*
X0183595Y0045252D01*
X0178855Y0045252D01*
X0178855Y0042098D01*
X0178964Y0041691D01*
X0179175Y0041326D01*
X0179473Y0041028D01*
X0179838Y0040818D01*
X0180244Y0040709D01*
X0183595Y0040709D01*
X0183595Y0045252D01*
X0184795Y0045252D01*
X0184795Y0040709D01*
X0188146Y0040709D01*
X0188553Y0040818D01*
X0188918Y0041028D01*
X0189195Y0041306D01*
X0189195Y0030863D01*
X0189107Y0031134D01*
X0188728Y0031878D01*
X0188238Y0032553D01*
X0187648Y0033143D01*
X0186973Y0033633D01*
X0186230Y0034012D01*
X0185436Y0034269D01*
X0184612Y0034400D01*
X0184595Y0034400D01*
X0184595Y0029500D01*
X0183795Y0029500D01*
X0183795Y0028700D01*
X0178895Y0028700D01*
X0174595Y0028700D01*
X0174595Y0029500D01*
X0173795Y0029500D01*
X0173795Y0028700D01*
X0168895Y0028700D01*
X0164595Y0028700D01*
X0164595Y0029500D01*
X0163795Y0029500D01*
X0163795Y0028700D01*
X0158895Y0028700D01*
X0154595Y0028700D01*
X0154595Y0029500D01*
X0153795Y0029500D01*
X0153795Y0028700D01*
X0149495Y0028700D01*
X0144595Y0028700D01*
X0144595Y0029500D01*
X0143795Y0029500D01*
X0143795Y0028700D01*
X0138895Y0028700D01*
X0134595Y0028700D01*
X0134595Y0029500D01*
X0133795Y0029500D01*
X0133795Y0028700D01*
X0128895Y0028700D01*
X0124595Y0028700D01*
X0124595Y0029500D01*
X0123795Y0029500D01*
X0123795Y0028700D01*
X0118895Y0028700D01*
X0114595Y0028700D01*
X0114595Y0029500D01*
X0113795Y0029500D01*
X0113795Y0028700D01*
X0109495Y0028700D01*
X0104595Y0028700D01*
X0104595Y0029500D01*
X0113795Y0029500D01*
X0113795Y0034400D01*
X0113778Y0034400D01*
X0113434Y0034345D01*
X0113488Y0034400D01*
X0113960Y0035538D01*
X0114361Y0035136D01*
X0116183Y0035136D01*
X0120813Y0039766D01*
X0120813Y0041588D01*
X0120786Y0041615D01*
X0120908Y0041582D01*
X0121329Y0041582D01*
X0121736Y0041691D01*
X0122101Y0041902D01*
X0123509Y0043310D01*
X0121118Y0045701D01*
X0121940Y0046523D01*
X0121118Y0047345D01*
X0123509Y0049736D01*
X0122101Y0051144D01*
X0121736Y0051355D01*
X0121329Y0051464D01*
X0120908Y0051464D01*
X0120501Y0051355D01*
X0120136Y0051144D01*
X0119295Y0051937D02*
X0132365Y0051937D01*
X0131305Y0053136D02*
X0130982Y0053136D01*
X0127408Y0053136D02*
X0119295Y0053136D01*
X0119295Y0054334D02*
X0125968Y0054334D01*
X0125433Y0055533D02*
X0119295Y0055533D01*
X0119295Y0056732D02*
X0125311Y0056732D01*
X0125542Y0057930D02*
X0119295Y0057930D01*
X0119295Y0059129D02*
X0126231Y0059129D01*
X0124195Y0059100D02*
X0121695Y0056600D01*
X0124195Y0059100D02*
X0124195Y0061600D01*
X0125625Y0060327D02*
X0122237Y0060327D01*
X0120154Y0060327D02*
X0119295Y0060327D01*
X0114595Y0063175D02*
X0113520Y0063100D01*
X0110195Y0063100D01*
X0106695Y0066600D01*
X0106695Y0071600D01*
X0100695Y0072100D02*
X0100695Y0073600D01*
X0099195Y0075100D01*
X0099270Y0075100D01*
X0099270Y0078500D01*
X0102195Y0079100D02*
X0102222Y0079098D01*
X0102249Y0079093D01*
X0102274Y0079085D01*
X0102299Y0079074D01*
X0102322Y0079060D01*
X0102344Y0079044D01*
X0102363Y0079025D01*
X0102379Y0079003D01*
X0102393Y0078980D01*
X0102404Y0078955D01*
X0102412Y0078930D01*
X0102417Y0078903D01*
X0102419Y0078876D01*
X0102420Y0078876D02*
X0102420Y0078500D01*
X0102195Y0079100D02*
X0102195Y0083600D01*
X0102193Y0083644D01*
X0102187Y0083687D01*
X0102178Y0083729D01*
X0102165Y0083771D01*
X0102148Y0083811D01*
X0102128Y0083850D01*
X0102105Y0083887D01*
X0102078Y0083921D01*
X0102049Y0083954D01*
X0102016Y0083983D01*
X0101982Y0084010D01*
X0101945Y0084033D01*
X0101906Y0084053D01*
X0101866Y0084070D01*
X0101824Y0084083D01*
X0101782Y0084092D01*
X0101739Y0084098D01*
X0101695Y0084100D01*
X0096195Y0084100D01*
X0096195Y0079075D01*
X0096217Y0079044D01*
X0096235Y0079011D01*
X0096251Y0078977D01*
X0096263Y0078941D01*
X0096272Y0078904D01*
X0096278Y0078867D01*
X0096280Y0078829D01*
X0096279Y0078791D01*
X0096274Y0078753D01*
X0096265Y0078716D01*
X0096254Y0078680D01*
X0096239Y0078646D01*
X0096221Y0078612D01*
X0096199Y0078581D01*
X0096176Y0078552D01*
X0096149Y0078525D01*
X0096120Y0078500D01*
X0092971Y0078500D02*
X0092971Y0075324D01*
X0094695Y0073600D01*
X0097695Y0073600D01*
X0093695Y0069600D01*
X0093695Y0060643D01*
X0089695Y0056643D01*
X0089695Y0054100D01*
X0089695Y0045574D01*
X0089821Y0044700D01*
X0096120Y0044700D02*
X0096120Y0048675D01*
X0093695Y0050600D01*
X0099270Y0044700D02*
X0099195Y0043625D01*
X0099195Y0040600D01*
X0099270Y0041138D02*
X0099270Y0041138D01*
X0092821Y0039952D02*
X0108139Y0039952D01*
X0106883Y0038754D02*
X0092821Y0038754D01*
X0092821Y0037555D02*
X0106387Y0037555D01*
X0106311Y0036357D02*
X0092821Y0036357D01*
X0092821Y0035158D02*
X0106588Y0035158D01*
X0106332Y0033960D02*
X0107342Y0033960D01*
X0104595Y0033960D02*
X0103795Y0033960D01*
X0103795Y0034400D02*
X0103778Y0034400D01*
X0102954Y0034269D01*
X0102161Y0034012D01*
X0101417Y0033633D01*
X0100743Y0033143D01*
X0100153Y0032553D01*
X0099662Y0031878D01*
X0099284Y0031134D01*
X0099026Y0030341D01*
X0098895Y0029517D01*
X0098895Y0029500D01*
X0103795Y0029500D01*
X0103795Y0034400D01*
X0102059Y0033960D02*
X0093379Y0033960D01*
X0093695Y0032761D02*
X0100361Y0032761D01*
X0099502Y0031563D02*
X0093695Y0031563D01*
X0093695Y0030364D02*
X0099033Y0030364D01*
X0103795Y0030364D02*
X0104595Y0030364D01*
X0104595Y0029166D02*
X0113795Y0029166D01*
X0114595Y0029166D02*
X0123795Y0029166D01*
X0123795Y0029500D02*
X0114595Y0029500D01*
X0114595Y0034400D01*
X0114612Y0034400D01*
X0115436Y0034269D01*
X0116230Y0034012D01*
X0116973Y0033633D01*
X0117648Y0033143D01*
X0118238Y0032553D01*
X0118728Y0031878D01*
X0119107Y0031134D01*
X0119195Y0030863D01*
X0119284Y0031134D01*
X0119662Y0031878D01*
X0120153Y0032553D01*
X0120743Y0033143D01*
X0121417Y0033633D01*
X0122161Y0034012D01*
X0122954Y0034269D01*
X0123778Y0034400D01*
X0123795Y0034400D01*
X0123795Y0029500D01*
X0124595Y0029500D02*
X0124595Y0034400D01*
X0124612Y0034400D01*
X0125436Y0034269D01*
X0126230Y0034012D01*
X0126973Y0033633D01*
X0127648Y0033143D01*
X0128238Y0032553D01*
X0128728Y0031878D01*
X0129107Y0031134D01*
X0129195Y0030863D01*
X0129284Y0031134D01*
X0129662Y0031878D01*
X0130153Y0032553D01*
X0130743Y0033143D01*
X0131417Y0033633D01*
X0132161Y0034012D01*
X0132954Y0034269D01*
X0133778Y0034400D01*
X0133795Y0034400D01*
X0133795Y0029500D01*
X0124595Y0029500D01*
X0124595Y0029166D02*
X0133795Y0029166D01*
X0134595Y0029166D02*
X0143795Y0029166D01*
X0143795Y0029500D02*
X0134595Y0029500D01*
X0134595Y0034400D01*
X0134612Y0034400D01*
X0135436Y0034269D01*
X0136230Y0034012D01*
X0136973Y0033633D01*
X0137648Y0033143D01*
X0138238Y0032553D01*
X0138728Y0031878D01*
X0139107Y0031134D01*
X0139195Y0030863D01*
X0139284Y0031134D01*
X0139662Y0031878D01*
X0140153Y0032553D01*
X0140743Y0033143D01*
X0141417Y0033633D01*
X0142161Y0034012D01*
X0142954Y0034269D01*
X0143778Y0034400D01*
X0143795Y0034400D01*
X0143795Y0029500D01*
X0144595Y0029500D02*
X0144595Y0034400D01*
X0144612Y0034400D01*
X0145436Y0034269D01*
X0146230Y0034012D01*
X0146973Y0033633D01*
X0147648Y0033143D01*
X0148238Y0032553D01*
X0148728Y0031878D01*
X0149107Y0031134D01*
X0149195Y0030863D01*
X0149284Y0031134D01*
X0149662Y0031878D01*
X0150153Y0032553D01*
X0150743Y0033143D01*
X0151417Y0033633D01*
X0152161Y0034012D01*
X0152954Y0034269D01*
X0153778Y0034400D01*
X0153795Y0034400D01*
X0153795Y0029500D01*
X0144595Y0029500D01*
X0144595Y0029166D02*
X0153795Y0029166D01*
X0154595Y0029166D02*
X0163795Y0029166D01*
X0163795Y0029500D02*
X0154595Y0029500D01*
X0154595Y0034400D01*
X0154612Y0034400D01*
X0155436Y0034269D01*
X0156230Y0034012D01*
X0156973Y0033633D01*
X0157648Y0033143D01*
X0158238Y0032553D01*
X0158728Y0031878D01*
X0159107Y0031134D01*
X0159195Y0030863D01*
X0159284Y0031134D01*
X0159662Y0031878D01*
X0160153Y0032553D01*
X0160743Y0033143D01*
X0161417Y0033633D01*
X0162161Y0034012D01*
X0162954Y0034269D01*
X0163778Y0034400D01*
X0163795Y0034400D01*
X0163795Y0029500D01*
X0164595Y0029500D02*
X0164595Y0034400D01*
X0164612Y0034400D01*
X0165436Y0034269D01*
X0166230Y0034012D01*
X0166973Y0033633D01*
X0167648Y0033143D01*
X0168238Y0032553D01*
X0168728Y0031878D01*
X0169107Y0031134D01*
X0169195Y0030863D01*
X0169284Y0031134D01*
X0169662Y0031878D01*
X0170153Y0032553D01*
X0170743Y0033143D01*
X0171417Y0033633D01*
X0172161Y0034012D01*
X0172954Y0034269D01*
X0173778Y0034400D01*
X0173795Y0034400D01*
X0173795Y0029500D01*
X0164595Y0029500D01*
X0164595Y0029166D02*
X0173795Y0029166D01*
X0174595Y0029166D02*
X0183795Y0029166D01*
X0183795Y0029500D02*
X0174595Y0029500D01*
X0174595Y0034400D01*
X0174612Y0034400D01*
X0175436Y0034269D01*
X0176230Y0034012D01*
X0176973Y0033633D01*
X0177648Y0033143D01*
X0178238Y0032553D01*
X0178728Y0031878D01*
X0179107Y0031134D01*
X0179195Y0030863D01*
X0179284Y0031134D01*
X0179662Y0031878D01*
X0180153Y0032553D01*
X0180743Y0033143D01*
X0181417Y0033633D01*
X0182161Y0034012D01*
X0182954Y0034269D01*
X0183778Y0034400D01*
X0183795Y0034400D01*
X0183795Y0029500D01*
X0183795Y0030364D02*
X0184595Y0030364D01*
X0184595Y0031563D02*
X0183795Y0031563D01*
X0183795Y0032761D02*
X0184595Y0032761D01*
X0184595Y0033960D02*
X0183795Y0033960D01*
X0182059Y0033960D02*
X0176332Y0033960D01*
X0174595Y0033960D02*
X0173795Y0033960D01*
X0172059Y0033960D02*
X0166332Y0033960D01*
X0164595Y0033960D02*
X0163795Y0033960D01*
X0162059Y0033960D02*
X0156332Y0033960D01*
X0154595Y0033960D02*
X0153795Y0033960D01*
X0152059Y0033960D02*
X0146332Y0033960D01*
X0144595Y0033960D02*
X0143795Y0033960D01*
X0142059Y0033960D02*
X0136332Y0033960D01*
X0134595Y0033960D02*
X0133795Y0033960D01*
X0132059Y0033960D02*
X0126332Y0033960D01*
X0124595Y0033960D02*
X0123795Y0033960D01*
X0122059Y0033960D02*
X0116332Y0033960D01*
X0116206Y0035158D02*
X0189195Y0035158D01*
X0189195Y0033960D02*
X0186332Y0033960D01*
X0188029Y0032761D02*
X0189195Y0032761D01*
X0189195Y0031563D02*
X0188889Y0031563D01*
X0189195Y0036357D02*
X0151955Y0036357D01*
X0153494Y0037555D02*
X0189195Y0037555D01*
X0189195Y0038754D02*
X0154402Y0038754D01*
X0154899Y0039952D02*
X0189195Y0039952D01*
X0189195Y0041151D02*
X0189040Y0041151D01*
X0184795Y0041151D02*
X0183595Y0041151D01*
X0183595Y0042349D02*
X0184795Y0042349D01*
X0184795Y0043548D02*
X0183595Y0043548D01*
X0183595Y0044746D02*
X0184795Y0044746D01*
X0183595Y0045945D02*
X0170095Y0045945D01*
X0170095Y0047143D02*
X0178855Y0047143D01*
X0178855Y0048342D02*
X0170095Y0048342D01*
X0170095Y0049540D02*
X0178855Y0049540D01*
X0179465Y0050739D02*
X0170095Y0050739D01*
X0171275Y0051937D02*
X0178266Y0051937D01*
X0178255Y0053136D02*
X0172474Y0053136D01*
X0178171Y0054334D02*
X0178255Y0054334D01*
X0173762Y0059041D02*
X0164254Y0059041D01*
X0164195Y0059100D01*
X0158295Y0059129D02*
X0156757Y0059129D01*
X0156757Y0059071D02*
X0156757Y0064043D01*
X0155700Y0065100D01*
X0156757Y0066157D01*
X0156757Y0070571D01*
X0157757Y0071571D01*
X0157757Y0076543D01*
X0156469Y0077831D01*
X0151389Y0077831D01*
X0151333Y0077969D01*
X0153008Y0077968D01*
X0153008Y0080956D01*
X0153383Y0080956D01*
X0153383Y0081331D01*
X0157157Y0081331D01*
X0157157Y0082929D01*
X0157048Y0083336D01*
X0156838Y0083701D01*
X0156540Y0083998D01*
X0156364Y0084100D01*
X0162433Y0084100D01*
X0162161Y0084012D01*
X0161417Y0083633D01*
X0160743Y0083143D01*
X0160153Y0082553D01*
X0159662Y0081878D01*
X0159284Y0081134D01*
X0159026Y0080341D01*
X0158895Y0079517D01*
X0158895Y0079500D01*
X0163795Y0079500D01*
X0163795Y0078700D01*
X0158895Y0078700D01*
X0158895Y0078683D01*
X0159026Y0077859D01*
X0159284Y0077066D01*
X0159662Y0076322D01*
X0160153Y0075647D01*
X0160743Y0075057D01*
X0161417Y0074567D01*
X0161668Y0074439D01*
X0160853Y0074102D01*
X0159193Y0072442D01*
X0158295Y0070274D01*
X0158295Y0067926D01*
X0159193Y0065758D01*
X0160851Y0064100D01*
X0159193Y0062442D01*
X0158295Y0060274D01*
X0158295Y0057926D01*
X0159193Y0055758D01*
X0159951Y0055000D01*
X0159584Y0055000D01*
X0158295Y0053711D01*
X0158295Y0052100D01*
X0156099Y0052100D01*
X0154996Y0051643D01*
X0150711Y0047358D01*
X0150369Y0047500D01*
X0148022Y0047500D01*
X0146355Y0046810D01*
X0146413Y0047027D01*
X0146413Y0049413D01*
X0143426Y0049413D01*
X0143426Y0049787D01*
X0146413Y0049787D01*
X0146413Y0052173D01*
X0146384Y0052283D01*
X0146927Y0052827D01*
X0146927Y0057716D01*
X0146968Y0057716D01*
X0147064Y0057755D01*
X0147064Y0056287D01*
X0150051Y0056287D01*
X0150051Y0055913D01*
X0147064Y0055913D01*
X0147064Y0053527D01*
X0147173Y0053120D01*
X0147383Y0052755D01*
X0147681Y0052457D01*
X0148046Y0052247D01*
X0148453Y0052138D01*
X0150051Y0052138D01*
X0150051Y0055913D01*
X0150426Y0055913D01*
X0150426Y0056287D01*
X0153413Y0056287D01*
X0153413Y0057782D01*
X0155469Y0057782D01*
X0156757Y0059071D01*
X0155617Y0057930D02*
X0158295Y0057930D01*
X0158790Y0056732D02*
X0153413Y0056732D01*
X0153413Y0055913D02*
X0150426Y0055913D01*
X0150426Y0052138D01*
X0152024Y0052138D01*
X0152431Y0052247D01*
X0152796Y0052457D01*
X0153094Y0052755D01*
X0153304Y0053120D01*
X0153413Y0053527D01*
X0153413Y0055913D01*
X0153413Y0055533D02*
X0159418Y0055533D01*
X0158919Y0054334D02*
X0153413Y0054334D01*
X0153309Y0053136D02*
X0158295Y0053136D01*
X0155706Y0051937D02*
X0146413Y0051937D01*
X0146927Y0053136D02*
X0147169Y0053136D01*
X0147064Y0054334D02*
X0146927Y0054334D01*
X0146927Y0055533D02*
X0147064Y0055533D01*
X0147064Y0056732D02*
X0146927Y0056732D01*
X0150051Y0055533D02*
X0150426Y0055533D01*
X0150426Y0054334D02*
X0150051Y0054334D01*
X0150051Y0053136D02*
X0150426Y0053136D01*
X0154092Y0050739D02*
X0146413Y0050739D01*
X0143426Y0049540D02*
X0152893Y0049540D01*
X0151695Y0048342D02*
X0146413Y0048342D01*
X0143426Y0048342D02*
X0143051Y0048342D01*
X0143051Y0049413D02*
X0143426Y0049413D01*
X0143426Y0045638D01*
X0144889Y0045638D01*
X0144193Y0044942D01*
X0143856Y0044127D01*
X0143728Y0044378D01*
X0143238Y0045053D01*
X0142653Y0045638D01*
X0143051Y0045638D01*
X0143051Y0049413D01*
X0140064Y0049413D01*
X0140064Y0047027D01*
X0140119Y0046820D01*
X0139927Y0046850D01*
X0139927Y0049556D01*
X0140158Y0049787D01*
X0143051Y0049787D01*
X0143051Y0049413D01*
X0143051Y0049540D02*
X0139927Y0049540D01*
X0139927Y0048342D02*
X0140064Y0048342D01*
X0140064Y0047143D02*
X0139927Y0047143D01*
X0143051Y0047143D02*
X0143426Y0047143D01*
X0143426Y0045945D02*
X0143051Y0045945D01*
X0143460Y0044746D02*
X0144112Y0044746D01*
X0146413Y0047143D02*
X0147161Y0047143D01*
X0155386Y0043548D02*
X0159236Y0043548D01*
X0158295Y0044746D02*
X0156584Y0044746D01*
X0157783Y0045945D02*
X0158295Y0045945D01*
X0155095Y0042349D02*
X0178855Y0042349D01*
X0178855Y0043548D02*
X0169154Y0043548D01*
X0170095Y0044746D02*
X0178855Y0044746D01*
X0179350Y0041151D02*
X0155095Y0041151D01*
X0144896Y0037555D02*
X0142645Y0037555D01*
X0143679Y0038754D02*
X0143988Y0038754D01*
X0139595Y0038754D02*
X0138795Y0038754D01*
X0138795Y0039952D02*
X0139595Y0039952D01*
X0139595Y0041151D02*
X0138795Y0041151D01*
X0134712Y0038754D02*
X0134402Y0038754D01*
X0133494Y0037555D02*
X0135745Y0037555D01*
X0138795Y0037555D02*
X0139595Y0037555D01*
X0139595Y0036357D02*
X0138795Y0036357D01*
X0138419Y0036357D02*
X0131955Y0036357D01*
X0126436Y0036357D02*
X0117404Y0036357D01*
X0114339Y0035158D02*
X0113802Y0035158D01*
X0113795Y0033960D02*
X0114595Y0033960D01*
X0114595Y0032761D02*
X0113795Y0032761D01*
X0113795Y0031563D02*
X0114595Y0031563D01*
X0114595Y0030364D02*
X0113795Y0030364D01*
X0109502Y0031563D02*
X0108889Y0031563D01*
X0109313Y0032761D02*
X0108029Y0032761D01*
X0104595Y0032761D02*
X0103795Y0032761D01*
X0103795Y0031563D02*
X0104595Y0031563D01*
X0103795Y0029166D02*
X0093695Y0029166D01*
X0093695Y0027967D02*
X0099009Y0027967D01*
X0099435Y0026769D02*
X0093695Y0026769D01*
X0093695Y0025570D02*
X0100230Y0025570D01*
X0101505Y0024372D02*
X0093434Y0024372D01*
X0092511Y0023173D02*
X0099925Y0023173D01*
X0099000Y0021975D02*
X0091313Y0021975D01*
X0090114Y0020776D02*
X0098503Y0020776D01*
X0098295Y0019578D02*
X0090095Y0019578D01*
X0090095Y0018379D02*
X0098295Y0018379D01*
X0098604Y0017181D02*
X0090095Y0017181D01*
X0089421Y0015982D02*
X0099101Y0015982D01*
X0100168Y0014784D02*
X0088223Y0014784D01*
X0087024Y0013585D02*
X0100337Y0013585D01*
X0099171Y0012387D02*
X0053645Y0012387D01*
X0053645Y0011188D02*
X0098674Y0011188D01*
X0098295Y0009990D02*
X0053645Y0009990D01*
X0053645Y0008791D02*
X0098295Y0008791D01*
X0098434Y0007593D02*
X0053645Y0007593D01*
X0053645Y0006394D02*
X0098930Y0006394D01*
X0099756Y0005196D02*
X0053645Y0005196D01*
X0053321Y0013585D02*
X0071366Y0013585D01*
X0070168Y0014784D02*
X0067374Y0014784D01*
X0068573Y0015982D02*
X0068969Y0015982D01*
X0064595Y0015982D02*
X0063795Y0015982D01*
X0063795Y0014784D02*
X0064595Y0014784D01*
X0064595Y0017181D02*
X0063795Y0017181D01*
X0063795Y0018379D02*
X0064595Y0018379D01*
X0077024Y0013585D02*
X0081366Y0013585D01*
X0080168Y0014784D02*
X0078223Y0014784D01*
X0044926Y0027967D02*
X0044551Y0027967D01*
X0042172Y0027967D02*
X0041067Y0027967D01*
X0041427Y0029166D02*
X0041564Y0029166D01*
X0041564Y0030364D02*
X0041427Y0030364D01*
X0044551Y0030364D02*
X0044926Y0030364D01*
X0044926Y0029166D02*
X0044551Y0029166D01*
X0041564Y0033960D02*
X0041427Y0033960D01*
X0041142Y0035158D02*
X0042097Y0035158D01*
X0041436Y0036357D02*
X0036955Y0036357D01*
X0038494Y0037555D02*
X0039896Y0037555D01*
X0047913Y0033960D02*
X0060711Y0033960D01*
X0058927Y0036357D02*
X0056955Y0036357D01*
X0067679Y0033960D02*
X0070711Y0033960D01*
X0069513Y0032761D02*
X0068878Y0032761D01*
X0110195Y0036600D02*
X0114195Y0040600D01*
X0115272Y0040677D01*
X0119801Y0038754D02*
X0123988Y0038754D01*
X0123492Y0039952D02*
X0120813Y0039952D01*
X0120813Y0041151D02*
X0123295Y0041151D01*
X0123295Y0042349D02*
X0122548Y0042349D01*
X0123272Y0043548D02*
X0123616Y0043548D01*
X0123717Y0044746D02*
X0122073Y0044746D01*
X0122518Y0045945D02*
X0121362Y0045945D01*
X0121320Y0047143D02*
X0122561Y0047143D01*
X0122115Y0048342D02*
X0123759Y0048342D01*
X0124903Y0048342D02*
X0132377Y0048342D01*
X0132377Y0049540D02*
X0123314Y0049540D01*
X0122506Y0050739D02*
X0132377Y0050739D01*
X0132377Y0047143D02*
X0131230Y0047143D01*
X0127161Y0047143D02*
X0125948Y0047143D01*
X0124896Y0037555D02*
X0118603Y0037555D01*
X0118029Y0032761D02*
X0120361Y0032761D01*
X0119502Y0031563D02*
X0118889Y0031563D01*
X0123795Y0031563D02*
X0124595Y0031563D01*
X0124595Y0032761D02*
X0123795Y0032761D01*
X0123795Y0030364D02*
X0124595Y0030364D01*
X0128029Y0032761D02*
X0130361Y0032761D01*
X0129502Y0031563D02*
X0128889Y0031563D01*
X0133795Y0031563D02*
X0134595Y0031563D01*
X0134595Y0032761D02*
X0133795Y0032761D01*
X0133795Y0030364D02*
X0134595Y0030364D01*
X0138029Y0032761D02*
X0140361Y0032761D01*
X0139502Y0031563D02*
X0138889Y0031563D01*
X0143795Y0031563D02*
X0144595Y0031563D01*
X0144595Y0032761D02*
X0143795Y0032761D01*
X0143795Y0030364D02*
X0144595Y0030364D01*
X0148029Y0032761D02*
X0150361Y0032761D01*
X0149502Y0031563D02*
X0148889Y0031563D01*
X0153795Y0031563D02*
X0154595Y0031563D01*
X0154595Y0032761D02*
X0153795Y0032761D01*
X0153795Y0030364D02*
X0154595Y0030364D01*
X0158029Y0032761D02*
X0160361Y0032761D01*
X0159502Y0031563D02*
X0158889Y0031563D01*
X0163795Y0031563D02*
X0164595Y0031563D01*
X0164595Y0032761D02*
X0163795Y0032761D01*
X0163795Y0030364D02*
X0164595Y0030364D01*
X0168029Y0032761D02*
X0170361Y0032761D01*
X0169502Y0031563D02*
X0168889Y0031563D01*
X0173795Y0031563D02*
X0174595Y0031563D01*
X0174595Y0032761D02*
X0173795Y0032761D01*
X0173795Y0030364D02*
X0174595Y0030364D01*
X0178029Y0032761D02*
X0180361Y0032761D01*
X0179502Y0031563D02*
X0178889Y0031563D01*
X0146436Y0036357D02*
X0139971Y0036357D01*
X0143152Y0056100D02*
X0143152Y0058557D01*
X0146195Y0061600D01*
X0146239Y0061557D01*
X0152195Y0061557D01*
X0156757Y0061526D02*
X0158814Y0061526D01*
X0158317Y0060327D02*
X0156757Y0060327D01*
X0156757Y0062724D02*
X0159476Y0062724D01*
X0160674Y0063923D02*
X0156757Y0063923D01*
X0155721Y0065121D02*
X0159830Y0065121D01*
X0158961Y0066320D02*
X0156757Y0066320D01*
X0156757Y0067518D02*
X0158464Y0067518D01*
X0158295Y0068717D02*
X0156757Y0068717D01*
X0156757Y0069915D02*
X0158295Y0069915D01*
X0158643Y0071114D02*
X0157301Y0071114D01*
X0157757Y0072312D02*
X0159140Y0072312D01*
X0160262Y0073511D02*
X0157757Y0073511D01*
X0157757Y0074709D02*
X0161222Y0074709D01*
X0159963Y0075908D02*
X0157757Y0075908D01*
X0157194Y0077106D02*
X0159270Y0077106D01*
X0158955Y0078305D02*
X0156556Y0078305D01*
X0156540Y0078288D02*
X0156838Y0078586D01*
X0157048Y0078951D01*
X0157157Y0079358D01*
X0157157Y0080956D01*
X0153383Y0080956D01*
X0153383Y0077969D01*
X0155768Y0077969D01*
X0156175Y0078078D01*
X0156540Y0078288D01*
X0153383Y0078305D02*
X0153008Y0078305D01*
X0153008Y0079503D02*
X0153383Y0079503D01*
X0153383Y0080702D02*
X0153008Y0080702D01*
X0153008Y0080956D02*
X0149233Y0080956D01*
X0149233Y0080167D01*
X0148468Y0080484D01*
X0146923Y0080484D01*
X0145672Y0079966D01*
X0145343Y0080296D01*
X0142891Y0080296D01*
X0142891Y0082747D01*
X0141603Y0084036D01*
X0126788Y0084036D01*
X0125499Y0082747D01*
X0125499Y0080296D01*
X0123048Y0080296D01*
X0121865Y0079113D01*
X0120968Y0079484D01*
X0119423Y0079484D01*
X0117995Y0078893D01*
X0116902Y0077800D01*
X0116311Y0076373D01*
X0116311Y0075924D01*
X0112019Y0075924D01*
X0112019Y0081911D01*
X0110730Y0083200D01*
X0103558Y0083200D01*
X0102958Y0082600D01*
X0102420Y0082600D01*
X0102420Y0082062D01*
X0102420Y0082062D01*
X0102420Y0082600D01*
X0101881Y0082600D01*
X0101281Y0083200D01*
X0097259Y0083200D01*
X0096659Y0082600D01*
X0096121Y0082600D01*
X0096121Y0082062D01*
X0096120Y0082062D01*
X0096120Y0082600D01*
X0095582Y0082600D01*
X0094982Y0083200D01*
X0084660Y0083200D01*
X0083372Y0081911D01*
X0083372Y0080417D01*
X0082896Y0080893D01*
X0081468Y0081484D01*
X0079923Y0081484D01*
X0078495Y0080893D01*
X0077445Y0079843D01*
X0077396Y0079893D01*
X0075968Y0080484D01*
X0074423Y0080484D01*
X0072995Y0079893D01*
X0071902Y0078800D01*
X0071737Y0078402D01*
X0071037Y0079102D01*
X0068869Y0080000D01*
X0066522Y0080000D01*
X0064353Y0079102D01*
X0062693Y0077442D01*
X0061795Y0075274D01*
X0061795Y0072926D01*
X0062693Y0070758D01*
X0064353Y0069098D01*
X0065168Y0068761D01*
X0064917Y0068633D01*
X0064243Y0068143D01*
X0063653Y0067553D01*
X0063162Y0066878D01*
X0062784Y0066134D01*
X0062688Y0065840D01*
X0062291Y0066237D01*
X0057543Y0070985D01*
X0057104Y0072046D01*
X0055641Y0073508D01*
X0053730Y0074300D01*
X0048661Y0074300D01*
X0046750Y0073508D01*
X0045287Y0072046D01*
X0044495Y0070134D01*
X0044495Y0068066D01*
X0045287Y0066154D01*
X0046750Y0064692D01*
X0048178Y0064100D01*
X0046750Y0063508D01*
X0045895Y0062654D01*
X0045895Y0064336D01*
X0045332Y0065696D01*
X0044291Y0066737D01*
X0039189Y0071838D01*
X0039104Y0072046D01*
X0037641Y0073508D01*
X0035730Y0074300D01*
X0030661Y0074300D01*
X0028750Y0073508D01*
X0027287Y0072046D01*
X0026495Y0070134D01*
X0026495Y0068066D01*
X0027226Y0066302D01*
X0026291Y0067237D01*
X0021291Y0072237D01*
X0020645Y0072504D01*
X0019641Y0073508D01*
X0017730Y0074300D01*
X0012661Y0074300D01*
X0010750Y0073508D01*
X0009287Y0072046D01*
X0009195Y0071824D01*
X0009195Y0078107D01*
X0009209Y0078023D01*
X0009432Y0077334D01*
X0009761Y0076689D01*
X0010187Y0076103D01*
X0010699Y0075591D01*
X0011284Y0075166D01*
X0011929Y0074837D01*
X0012618Y0074613D01*
X0013333Y0074500D01*
X0014795Y0074500D01*
X0014795Y0078700D01*
X0009195Y0078700D01*
X0009195Y0079500D01*
X0014795Y0079500D01*
X0014795Y0078700D01*
X0015595Y0078700D01*
X0015595Y0074500D01*
X0017057Y0074500D01*
X0017772Y0074613D01*
X0018461Y0074837D01*
X0019106Y0075166D01*
X0019692Y0075591D01*
X0020204Y0076103D01*
X0020630Y0076689D01*
X0020958Y0077334D01*
X0021182Y0078023D01*
X0021289Y0078700D01*
X0015595Y0078700D01*
X0015595Y0079500D01*
X0014795Y0079500D01*
X0014795Y0083700D01*
X0013333Y0083700D01*
X0012618Y0083587D01*
X0011929Y0083363D01*
X0011284Y0083034D01*
X0010699Y0082609D01*
X0010187Y0082097D01*
X0009761Y0081511D01*
X0009432Y0080866D01*
X0009209Y0080177D01*
X0009195Y0080093D01*
X0009195Y0084100D01*
X0150027Y0084100D01*
X0149851Y0083998D01*
X0149553Y0083701D01*
X0149342Y0083336D01*
X0149233Y0082929D01*
X0149233Y0081331D01*
X0153008Y0081331D01*
X0153008Y0080956D01*
X0149233Y0080702D02*
X0142891Y0080702D01*
X0142891Y0081900D02*
X0149233Y0081900D01*
X0149279Y0083099D02*
X0142540Y0083099D01*
X0157112Y0083099D02*
X0160699Y0083099D01*
X0159679Y0081900D02*
X0157157Y0081900D01*
X0157157Y0080702D02*
X0159143Y0080702D01*
X0158895Y0079503D02*
X0157157Y0079503D01*
X0164595Y0079500D02*
X0164595Y0078700D01*
X0169495Y0078700D01*
X0169495Y0078683D01*
X0169365Y0077859D01*
X0169107Y0077066D01*
X0168728Y0076322D01*
X0168238Y0075647D01*
X0167648Y0075057D01*
X0166973Y0074567D01*
X0166722Y0074439D01*
X0167537Y0074102D01*
X0169197Y0072442D01*
X0170095Y0070274D01*
X0170095Y0068729D01*
X0170389Y0068898D01*
X0170796Y0069007D01*
X0173762Y0069007D01*
X0173762Y0067048D01*
X0173762Y0067048D01*
X0173762Y0069007D01*
X0176729Y0069007D01*
X0177136Y0068898D01*
X0177501Y0068687D01*
X0177798Y0068390D01*
X0178009Y0068025D01*
X0178118Y0067618D01*
X0178118Y0066718D01*
X0178118Y0066359D01*
X0178255Y0066222D01*
X0178255Y0071251D01*
X0179508Y0072504D01*
X0179473Y0072524D01*
X0179175Y0072822D01*
X0178964Y0073187D01*
X0178855Y0073594D01*
X0178855Y0076748D01*
X0183595Y0076748D01*
X0183595Y0077948D01*
X0178855Y0077948D01*
X0178855Y0081102D01*
X0178964Y0081509D01*
X0179175Y0081874D01*
X0179473Y0082172D01*
X0179838Y0082382D01*
X0180244Y0082491D01*
X0183595Y0082491D01*
X0183595Y0077948D01*
X0184795Y0077948D01*
X0184795Y0082491D01*
X0188146Y0082491D01*
X0188553Y0082382D01*
X0188918Y0082172D01*
X0189195Y0081894D01*
X0189195Y0084100D01*
X0165958Y0084100D01*
X0166230Y0084012D01*
X0166973Y0083633D01*
X0167648Y0083143D01*
X0168238Y0082553D01*
X0168728Y0081878D01*
X0169107Y0081134D01*
X0169365Y0080341D01*
X0169495Y0079517D01*
X0169495Y0079500D01*
X0164595Y0079500D01*
X0168712Y0081900D02*
X0179201Y0081900D01*
X0178855Y0080702D02*
X0169248Y0080702D01*
X0169495Y0079503D02*
X0178855Y0079503D01*
X0178855Y0078305D02*
X0169435Y0078305D01*
X0169120Y0077106D02*
X0183595Y0077106D01*
X0183595Y0078305D02*
X0184795Y0078305D01*
X0184795Y0079503D02*
X0183595Y0079503D01*
X0183595Y0080702D02*
X0184795Y0080702D01*
X0184795Y0081900D02*
X0183595Y0081900D01*
X0189189Y0081900D02*
X0189195Y0081900D01*
X0189195Y0083099D02*
X0167692Y0083099D01*
X0168427Y0075908D02*
X0178855Y0075908D01*
X0178855Y0074709D02*
X0167169Y0074709D01*
X0168128Y0073511D02*
X0178877Y0073511D01*
X0179316Y0072312D02*
X0169251Y0072312D01*
X0169747Y0071114D02*
X0178255Y0071114D01*
X0178255Y0069915D02*
X0170095Y0069915D01*
X0173762Y0068717D02*
X0173762Y0068717D01*
X0173762Y0067518D02*
X0173762Y0067518D01*
X0177450Y0068717D02*
X0178255Y0068717D01*
X0178255Y0067518D02*
X0178118Y0067518D01*
X0178118Y0066718D02*
X0177759Y0066718D01*
X0177759Y0066718D01*
X0178118Y0066718D01*
X0178158Y0066320D02*
X0178255Y0066320D01*
X0173762Y0061600D02*
X0170195Y0061600D01*
X0164695Y0067100D01*
X0164695Y0068600D01*
X0164195Y0069100D01*
X0146195Y0061600D02*
X0145195Y0061600D01*
X0143195Y0063600D01*
X0116615Y0077106D02*
X0112019Y0077106D01*
X0112019Y0078305D02*
X0117407Y0078305D01*
X0122255Y0079503D02*
X0112019Y0079503D01*
X0112019Y0080702D02*
X0125499Y0080702D01*
X0125499Y0081900D02*
X0112019Y0081900D01*
X0110831Y0083099D02*
X0125850Y0083099D01*
X0103457Y0083099D02*
X0101383Y0083099D01*
X0102420Y0082062D02*
X0102420Y0082062D01*
X0097158Y0083099D02*
X0095083Y0083099D01*
X0096120Y0082062D02*
X0096120Y0082062D01*
X0089821Y0078500D02*
X0089821Y0076974D01*
X0090195Y0077100D01*
X0090195Y0068100D01*
X0086695Y0063100D02*
X0083695Y0066100D01*
X0080020Y0066100D01*
X0080795Y0066324D01*
X0086695Y0063100D02*
X0086695Y0060100D01*
X0080795Y0060025D02*
X0076620Y0060025D01*
X0073695Y0062950D01*
X0073695Y0068100D01*
X0075195Y0072100D02*
X0077695Y0069600D01*
X0079669Y0069600D01*
X0080795Y0069474D01*
X0080795Y0072624D02*
X0080695Y0072724D01*
X0080695Y0077600D01*
X0078304Y0080702D02*
X0057012Y0080702D01*
X0056958Y0080866D02*
X0057182Y0080177D01*
X0057289Y0079500D01*
X0051595Y0079500D01*
X0050795Y0079500D01*
X0050795Y0078700D01*
X0045101Y0078700D01*
X0045209Y0078023D01*
X0045432Y0077334D01*
X0045761Y0076689D01*
X0046187Y0076103D01*
X0046699Y0075591D01*
X0047284Y0075166D01*
X0047929Y0074837D01*
X0048618Y0074613D01*
X0049333Y0074500D01*
X0050795Y0074500D01*
X0050795Y0078700D01*
X0051595Y0078700D01*
X0051595Y0074500D01*
X0053057Y0074500D01*
X0053772Y0074613D01*
X0054461Y0074837D01*
X0055106Y0075166D01*
X0055692Y0075591D01*
X0056204Y0076103D01*
X0056630Y0076689D01*
X0056958Y0077334D01*
X0057182Y0078023D01*
X0057289Y0078700D01*
X0051595Y0078700D01*
X0051595Y0079500D01*
X0051595Y0083700D01*
X0053057Y0083700D01*
X0053772Y0083587D01*
X0054461Y0083363D01*
X0055106Y0083034D01*
X0055692Y0082609D01*
X0056204Y0082097D01*
X0056630Y0081511D01*
X0056958Y0080866D01*
X0056347Y0081900D02*
X0083372Y0081900D01*
X0083372Y0080702D02*
X0083087Y0080702D01*
X0086672Y0078500D02*
X0086672Y0071624D01*
X0086695Y0071100D01*
X0097695Y0073600D02*
X0099195Y0075100D01*
X0084559Y0083099D02*
X0054980Y0083099D01*
X0051595Y0083099D02*
X0050795Y0083099D01*
X0050795Y0083700D02*
X0049333Y0083700D01*
X0048618Y0083587D01*
X0047929Y0083363D01*
X0047284Y0083034D01*
X0046699Y0082609D01*
X0046187Y0082097D01*
X0045761Y0081511D01*
X0045432Y0080866D01*
X0045209Y0080177D01*
X0045101Y0079500D01*
X0050795Y0079500D01*
X0050795Y0083700D01*
X0047411Y0083099D02*
X0036980Y0083099D01*
X0037106Y0083034D02*
X0036461Y0083363D01*
X0035772Y0083587D01*
X0035057Y0083700D01*
X0033595Y0083700D01*
X0033595Y0079500D01*
X0032795Y0079500D01*
X0032795Y0078700D01*
X0027101Y0078700D01*
X0027209Y0078023D01*
X0027432Y0077334D01*
X0027761Y0076689D01*
X0028187Y0076103D01*
X0028699Y0075591D01*
X0029284Y0075166D01*
X0029929Y0074837D01*
X0030618Y0074613D01*
X0031333Y0074500D01*
X0032795Y0074500D01*
X0032795Y0078700D01*
X0033595Y0078700D01*
X0033595Y0074500D01*
X0035057Y0074500D01*
X0035772Y0074613D01*
X0036461Y0074837D01*
X0037106Y0075166D01*
X0037692Y0075591D01*
X0038204Y0076103D01*
X0038630Y0076689D01*
X0038958Y0077334D01*
X0039182Y0078023D01*
X0039289Y0078700D01*
X0033595Y0078700D01*
X0033595Y0079500D01*
X0039289Y0079500D01*
X0039182Y0080177D01*
X0038958Y0080866D01*
X0038630Y0081511D01*
X0038204Y0082097D01*
X0037692Y0082609D01*
X0037106Y0083034D01*
X0033595Y0083099D02*
X0032795Y0083099D01*
X0032795Y0083700D02*
X0031333Y0083700D01*
X0030618Y0083587D01*
X0029929Y0083363D01*
X0029284Y0083034D01*
X0028699Y0082609D01*
X0028187Y0082097D01*
X0027761Y0081511D01*
X0027432Y0080866D01*
X0027209Y0080177D01*
X0027101Y0079500D01*
X0032795Y0079500D01*
X0032795Y0083700D01*
X0032795Y0081900D02*
X0033595Y0081900D01*
X0033595Y0080702D02*
X0032795Y0080702D01*
X0032795Y0079503D02*
X0033595Y0079503D01*
X0033595Y0078305D02*
X0032795Y0078305D01*
X0032795Y0077106D02*
X0033595Y0077106D01*
X0033595Y0075908D02*
X0032795Y0075908D01*
X0032795Y0074709D02*
X0033595Y0074709D01*
X0036068Y0074709D02*
X0048323Y0074709D01*
X0046382Y0075908D02*
X0038008Y0075908D01*
X0038842Y0077106D02*
X0045548Y0077106D01*
X0045164Y0078305D02*
X0039227Y0078305D01*
X0039289Y0079503D02*
X0045102Y0079503D01*
X0045379Y0080702D02*
X0039012Y0080702D01*
X0038347Y0081900D02*
X0046044Y0081900D01*
X0050795Y0081900D02*
X0051595Y0081900D01*
X0051595Y0080702D02*
X0050795Y0080702D01*
X0050795Y0079503D02*
X0051595Y0079503D01*
X0051195Y0079100D02*
X0052695Y0079100D01*
X0067695Y0064100D01*
X0062878Y0066320D02*
X0062208Y0066320D01*
X0061010Y0067518D02*
X0063628Y0067518D01*
X0065082Y0068717D02*
X0059811Y0068717D01*
X0058613Y0069915D02*
X0063536Y0069915D01*
X0062546Y0071114D02*
X0057490Y0071114D01*
X0056837Y0072312D02*
X0062050Y0072312D01*
X0061795Y0073511D02*
X0055635Y0073511D01*
X0054068Y0074709D02*
X0061795Y0074709D01*
X0062058Y0075908D02*
X0056008Y0075908D01*
X0056842Y0077106D02*
X0062554Y0077106D01*
X0063556Y0078305D02*
X0057227Y0078305D01*
X0057289Y0079503D02*
X0065322Y0079503D01*
X0070068Y0079503D02*
X0072605Y0079503D01*
X0075195Y0076600D02*
X0075195Y0072100D01*
X0051595Y0074709D02*
X0050795Y0074709D01*
X0050795Y0075908D02*
X0051595Y0075908D01*
X0051595Y0077106D02*
X0050795Y0077106D01*
X0050795Y0078305D02*
X0051595Y0078305D01*
X0046755Y0073511D02*
X0037635Y0073511D01*
X0038837Y0072312D02*
X0045554Y0072312D01*
X0044901Y0071114D02*
X0039914Y0071114D01*
X0041113Y0069915D02*
X0044495Y0069915D01*
X0044495Y0068717D02*
X0042311Y0068717D01*
X0043510Y0067518D02*
X0044722Y0067518D01*
X0044708Y0066320D02*
X0045218Y0066320D01*
X0045570Y0065121D02*
X0046320Y0065121D01*
X0045895Y0063923D02*
X0047750Y0063923D01*
X0045965Y0062724D02*
X0045895Y0062724D01*
X0027219Y0066320D02*
X0027208Y0066320D01*
X0026722Y0067518D02*
X0026010Y0067518D01*
X0026495Y0068717D02*
X0024811Y0068717D01*
X0023613Y0069915D02*
X0026495Y0069915D01*
X0026901Y0071114D02*
X0022414Y0071114D01*
X0021109Y0072312D02*
X0027554Y0072312D01*
X0028755Y0073511D02*
X0019635Y0073511D01*
X0018068Y0074709D02*
X0030323Y0074709D01*
X0028382Y0075908D02*
X0020008Y0075908D01*
X0020842Y0077106D02*
X0027548Y0077106D01*
X0027164Y0078305D02*
X0021227Y0078305D01*
X0021289Y0079500D02*
X0021182Y0080177D01*
X0020958Y0080866D01*
X0020630Y0081511D01*
X0020204Y0082097D01*
X0019692Y0082609D01*
X0019106Y0083034D01*
X0018461Y0083363D01*
X0017772Y0083587D01*
X0017057Y0083700D01*
X0015595Y0083700D01*
X0015595Y0079500D01*
X0021289Y0079500D01*
X0021289Y0079503D02*
X0027102Y0079503D01*
X0027379Y0080702D02*
X0021012Y0080702D01*
X0020347Y0081900D02*
X0028044Y0081900D01*
X0029411Y0083099D02*
X0018980Y0083099D01*
X0015595Y0083099D02*
X0014795Y0083099D01*
X0014795Y0081900D02*
X0015595Y0081900D01*
X0015595Y0080702D02*
X0014795Y0080702D01*
X0014795Y0079503D02*
X0015595Y0079503D01*
X0015595Y0078305D02*
X0014795Y0078305D01*
X0014795Y0077106D02*
X0015595Y0077106D01*
X0015595Y0075908D02*
X0014795Y0075908D01*
X0014795Y0074709D02*
X0015595Y0074709D01*
X0012323Y0074709D02*
X0009195Y0074709D01*
X0009195Y0075908D02*
X0010382Y0075908D01*
X0009548Y0077106D02*
X0009195Y0077106D01*
X0009195Y0073511D02*
X0010755Y0073511D01*
X0009554Y0072312D02*
X0009195Y0072312D01*
X0009195Y0080702D02*
X0009379Y0080702D01*
X0009195Y0081900D02*
X0010044Y0081900D01*
X0009195Y0083099D02*
X0011411Y0083099D01*
X0010224Y0033960D02*
X0009195Y0033960D01*
X0009915Y0033082D02*
X0009704Y0032718D01*
X0009595Y0032311D01*
X0009595Y0029500D01*
X0013795Y0029500D01*
X0013795Y0033700D01*
X0010985Y0033700D01*
X0010578Y0033591D01*
X0010213Y0033380D01*
X0009915Y0033082D01*
X0009730Y0032761D02*
X0009195Y0032761D01*
X0009195Y0031563D02*
X0009595Y0031563D01*
X0009595Y0030364D02*
X0009195Y0030364D01*
X0009195Y0029166D02*
X0013795Y0029166D01*
X0013795Y0030364D02*
X0014595Y0030364D01*
X0014595Y0031563D02*
X0013795Y0031563D01*
X0013795Y0032761D02*
X0014595Y0032761D01*
X0014595Y0027967D02*
X0013795Y0027967D01*
X0013795Y0026769D02*
X0014595Y0026769D01*
X0014595Y0025570D02*
X0013795Y0025570D01*
X0018795Y0027967D02*
X0018858Y0027967D01*
X0009595Y0027967D02*
X0009195Y0027967D01*
X0009195Y0026769D02*
X0009595Y0026769D01*
X0009681Y0025570D02*
X0009195Y0025570D01*
D31*
X0040195Y0017600D03*
X0081195Y0041100D03*
X0086195Y0050600D03*
X0089695Y0054100D03*
X0093695Y0050600D03*
X0104695Y0053600D03*
X0108195Y0050100D03*
X0121695Y0056600D03*
X0129195Y0056600D03*
X0134695Y0055100D03*
X0146195Y0061600D03*
X0136695Y0069100D03*
X0131695Y0069100D03*
X0131695Y0074100D03*
X0136695Y0074100D03*
X0147695Y0076600D03*
X0144195Y0082600D03*
X0120195Y0075600D03*
X0106695Y0071600D03*
X0100695Y0072100D03*
X0090195Y0068100D03*
X0086695Y0071100D03*
X0075195Y0076600D03*
X0080695Y0077600D03*
X0082195Y0082600D03*
X0073695Y0068100D03*
X0086695Y0060100D03*
X0121195Y0064100D03*
X0110195Y0036600D03*
D32*
X0136152Y0049600D02*
X0138132Y0051580D01*
X0138132Y0062545D01*
X0136164Y0062545D02*
X0136164Y0056069D01*
X0135195Y0055100D01*
X0134695Y0055100D01*
X0130695Y0056600D02*
X0134195Y0060100D01*
X0134195Y0062545D01*
X0132227Y0062545D02*
X0132227Y0068569D01*
X0132227Y0069631D01*
X0134195Y0071600D01*
X0131695Y0069100D02*
X0132227Y0068569D01*
X0125140Y0069631D02*
X0125109Y0069600D01*
X0121695Y0069600D01*
X0118420Y0066324D01*
X0114595Y0066324D01*
X0121195Y0064100D02*
X0122790Y0065694D01*
X0125140Y0065694D01*
X0125918Y0063322D02*
X0124195Y0061600D01*
X0129195Y0056600D02*
X0130695Y0056600D01*
X0140101Y0062545D02*
X0141640Y0062545D01*
X0143250Y0064155D01*
X0143250Y0065694D01*
X0143195Y0065639D01*
X0143195Y0063600D01*
X0143250Y0067663D02*
X0151676Y0067663D01*
X0152195Y0068643D01*
X0148695Y0073100D02*
X0147195Y0071600D01*
X0143250Y0071600D01*
X0143250Y0073569D02*
X0146164Y0073569D01*
X0147695Y0075100D01*
X0147695Y0076600D01*
X0151652Y0073100D02*
X0153195Y0074057D01*
X0151652Y0073100D02*
X0148695Y0073100D01*
X0125140Y0071600D02*
X0120695Y0071600D01*
X0118569Y0069474D01*
X0114595Y0069474D01*
X0114595Y0072624D02*
X0117219Y0072624D01*
X0120195Y0075600D01*
D33*
X0034195Y0041600D02*
X0031695Y0039100D01*
X0014195Y0039100D01*
X0099195Y0029100D02*
X0184195Y0029100D01*
D34*
X0067695Y0064100D02*
X0061695Y0069100D01*
X0048195Y0024100D02*
X0048195Y0019100D01*
X0052195Y0019100D01*
D35*
X0040195Y0017600D02*
X0039195Y0016600D01*
X0030829Y0016600D01*
X0022561Y0016600D02*
X0022561Y0014966D01*
X0016695Y0009100D01*
X0014195Y0009100D01*
X0022561Y0030734D02*
X0014195Y0039100D01*
X0023061Y0031600D02*
X0022561Y0030734D01*
X0031329Y0031600D02*
X0037652Y0031600D01*
X0032061Y0039466D02*
X0034195Y0041600D01*
X0084195Y0019100D02*
X0090695Y0025600D01*
X0090695Y0032600D01*
X0089821Y0033474D01*
X0089821Y0044700D01*
X0149195Y0041600D02*
X0156695Y0049100D01*
X0164195Y0049100D01*
X0171577Y0056482D01*
X0173762Y0056482D01*
D36*
X0084195Y0029100D02*
X0077795Y0035500D01*
X0077795Y0047576D01*
X0080795Y0050576D01*
X0079195Y0050100D01*
X0075695Y0052100D02*
X0075695Y0035100D01*
X0079195Y0031600D01*
X0079195Y0026600D01*
X0074195Y0021600D01*
X0074195Y0019100D01*
X0075695Y0052100D02*
X0077321Y0053726D01*
X0080795Y0053726D01*
D37*
X0114195Y0019100D02*
X0124195Y0019100D01*
X0134195Y0019100D02*
X0144195Y0019100D01*
X0154195Y0019100D02*
X0164195Y0019100D01*
X0174195Y0019100D02*
X0184195Y0019100D01*
D38*
X0064195Y0041600D02*
X0064195Y0044100D01*
X0060195Y0048100D01*
X0060195Y0063100D01*
X0054195Y0069100D01*
X0051195Y0069100D01*
X0042195Y0063600D02*
X0042195Y0056100D01*
X0054195Y0044100D01*
X0054195Y0041600D01*
X0044195Y0041600D02*
X0044195Y0044100D01*
X0039195Y0049100D01*
X0029195Y0049100D01*
X0024195Y0054100D01*
X0024195Y0064100D01*
X0019195Y0069100D01*
X0015195Y0069100D01*
X0033195Y0069100D02*
X0036695Y0069100D01*
X0042195Y0063600D01*
M02*
