G75*
%MOIN*%
%OFA0B0*%
%FSLAX25Y25*%
%IPPOS*%
%LPD*%
%AMOC8*
5,1,8,0,0,1.08239X$1,22.5*
%
%ADD10C,0.00400*%
%ADD11C,0.00600*%
%ADD12C,0.00300*%
%ADD13C,0.00200*%
D10*
X0071056Y0010634D02*
X0071056Y0011968D01*
X0071389Y0012302D01*
X0072390Y0012302D01*
X0072390Y0010300D01*
X0071389Y0010300D01*
X0071056Y0010634D01*
X0073266Y0010634D02*
X0073266Y0011968D01*
X0073599Y0012302D01*
X0074600Y0012302D01*
X0074600Y0010300D01*
X0073599Y0010300D01*
X0073266Y0010634D01*
X0075476Y0010300D02*
X0075476Y0012302D01*
X0075476Y0011301D02*
X0076810Y0011301D01*
X0076810Y0010300D02*
X0076810Y0012302D01*
X0081056Y0035800D02*
X0081723Y0036467D01*
X0081389Y0036467D02*
X0082390Y0036467D01*
X0082390Y0035800D02*
X0082390Y0037802D01*
X0081389Y0037802D01*
X0081056Y0037468D01*
X0081056Y0036801D01*
X0081389Y0036467D01*
X0083266Y0035800D02*
X0083266Y0037802D01*
X0084600Y0037802D02*
X0084600Y0035800D01*
X0083933Y0036467D01*
X0083266Y0035800D01*
X0085476Y0036801D02*
X0085809Y0036467D01*
X0086810Y0036467D01*
X0086810Y0035800D02*
X0086810Y0037802D01*
X0085809Y0037802D01*
X0085476Y0037468D01*
X0085476Y0036801D01*
X0175095Y0037039D02*
X0175095Y0036105D01*
X0175562Y0035638D01*
X0177431Y0037506D01*
X0175562Y0037506D01*
X0175095Y0037039D01*
X0175562Y0035638D02*
X0177431Y0035638D01*
X0177898Y0036105D01*
X0177898Y0037039D01*
X0177431Y0037506D01*
X0177431Y0038584D02*
X0177898Y0039051D01*
X0177898Y0039986D01*
X0177431Y0040453D01*
X0176964Y0040453D01*
X0176496Y0039986D01*
X0176029Y0040453D01*
X0175562Y0040453D01*
X0175095Y0039986D01*
X0175095Y0039051D01*
X0175562Y0038584D01*
X0176496Y0039519D02*
X0176496Y0039986D01*
X0175562Y0041531D02*
X0175562Y0041998D01*
X0175095Y0041998D01*
X0175095Y0041531D01*
X0175562Y0041531D01*
X0175095Y0043004D02*
X0176964Y0044872D01*
X0177431Y0044872D01*
X0177898Y0044405D01*
X0177898Y0043471D01*
X0177431Y0043004D01*
X0175095Y0043004D02*
X0175095Y0044872D01*
X0175562Y0045951D02*
X0175095Y0046418D01*
X0175095Y0047352D01*
X0175562Y0047819D01*
X0176029Y0047819D01*
X0176496Y0047352D01*
X0176496Y0045951D01*
X0175562Y0045951D01*
X0176496Y0045951D02*
X0177431Y0046885D01*
X0177898Y0047819D01*
X0179895Y0047915D02*
X0179895Y0048382D01*
X0180362Y0048382D01*
X0180362Y0047915D01*
X0179895Y0047915D01*
X0179895Y0046885D02*
X0180362Y0046418D01*
X0182231Y0046418D01*
X0181764Y0045951D02*
X0181764Y0046885D01*
X0181764Y0044896D02*
X0180829Y0043495D01*
X0179895Y0044896D01*
X0179895Y0043495D02*
X0182698Y0043495D01*
X0182698Y0042417D02*
X0179895Y0042417D01*
X0179895Y0041016D01*
X0180362Y0040549D01*
X0181296Y0040549D01*
X0181764Y0041016D01*
X0181764Y0042417D01*
X0184695Y0040549D02*
X0185629Y0041483D01*
X0186564Y0041483D01*
X0187498Y0040549D01*
X0187031Y0039470D02*
X0187498Y0039003D01*
X0187498Y0038069D01*
X0187031Y0037602D01*
X0185162Y0037602D01*
X0184695Y0038069D01*
X0184695Y0039003D01*
X0185162Y0039470D01*
X0181764Y0039003D02*
X0181764Y0038069D01*
X0181296Y0037602D01*
X0180362Y0037602D01*
X0179895Y0038069D01*
X0179895Y0039003D01*
X0180829Y0039470D02*
X0180829Y0037602D01*
X0179895Y0036572D02*
X0179895Y0035638D01*
X0179895Y0036105D02*
X0182698Y0036105D01*
X0182698Y0035638D01*
X0184695Y0036572D02*
X0185629Y0035638D01*
X0186564Y0035638D01*
X0187498Y0036572D01*
X0181764Y0039003D02*
X0181296Y0039470D01*
X0180829Y0039470D01*
X0184695Y0045460D02*
X0184695Y0046861D01*
X0185162Y0047328D01*
X0185629Y0047328D01*
X0186096Y0046861D01*
X0186096Y0045460D01*
X0184695Y0045460D02*
X0187498Y0045460D01*
X0187498Y0046861D01*
X0187031Y0047328D01*
X0186564Y0047328D01*
X0186096Y0046861D01*
X0184695Y0048406D02*
X0184695Y0049340D01*
X0184695Y0048873D02*
X0187498Y0048873D01*
X0187498Y0048406D01*
X0186564Y0050838D02*
X0186564Y0051772D01*
X0186096Y0052239D01*
X0184695Y0052239D01*
X0184695Y0050838D01*
X0185162Y0050370D01*
X0185629Y0050838D01*
X0185629Y0052239D01*
X0185629Y0053317D02*
X0186564Y0054718D01*
X0186096Y0055772D02*
X0186564Y0056239D01*
X0186564Y0057174D01*
X0186096Y0057641D01*
X0185629Y0057641D01*
X0185629Y0055772D01*
X0185162Y0055772D02*
X0186096Y0055772D01*
X0185162Y0055772D02*
X0184695Y0056239D01*
X0184695Y0057174D01*
X0184695Y0054718D02*
X0185629Y0053317D01*
X0184695Y0053317D02*
X0187498Y0053317D01*
X0182698Y0055281D02*
X0179895Y0055281D01*
X0179895Y0056683D01*
X0180362Y0057150D01*
X0181296Y0057150D01*
X0181764Y0056683D01*
X0181764Y0055281D01*
X0181764Y0054203D02*
X0179428Y0054203D01*
X0178961Y0053736D01*
X0178961Y0053269D01*
X0179895Y0052802D02*
X0179895Y0054203D01*
X0177898Y0053784D02*
X0177431Y0053317D01*
X0175562Y0053317D01*
X0177431Y0055185D01*
X0175562Y0055185D01*
X0175095Y0054718D01*
X0175095Y0053784D01*
X0175562Y0053317D01*
X0175095Y0052239D02*
X0175095Y0050370D01*
X0176964Y0052239D01*
X0177431Y0052239D01*
X0177898Y0051772D01*
X0177898Y0050838D01*
X0177431Y0050370D01*
X0175562Y0049364D02*
X0175095Y0049364D01*
X0175095Y0048897D01*
X0175562Y0048897D01*
X0175562Y0049364D01*
X0179895Y0049388D02*
X0182698Y0049388D01*
X0181764Y0049855D02*
X0181764Y0050789D01*
X0181296Y0051257D01*
X0179895Y0051257D01*
X0180362Y0052335D02*
X0179895Y0052802D01*
X0180362Y0052335D02*
X0181764Y0052335D01*
X0177898Y0053784D02*
X0177898Y0054718D01*
X0177431Y0055185D01*
X0176964Y0056263D02*
X0177898Y0057198D01*
X0175095Y0057198D01*
X0175095Y0058132D02*
X0175095Y0056263D01*
X0179895Y0058228D02*
X0181764Y0058228D01*
X0181764Y0059162D02*
X0180829Y0058228D01*
X0181764Y0059162D02*
X0181764Y0059629D01*
X0181764Y0060683D02*
X0181764Y0061150D01*
X0179895Y0061150D01*
X0179895Y0060683D02*
X0179895Y0061617D01*
X0180362Y0062648D02*
X0181296Y0062648D01*
X0181764Y0063115D01*
X0181764Y0064516D01*
X0182698Y0064516D02*
X0179895Y0064516D01*
X0179895Y0063115D01*
X0180362Y0062648D01*
X0182698Y0061150D02*
X0183165Y0061150D01*
X0184695Y0062133D02*
X0185162Y0061665D01*
X0184695Y0062133D02*
X0184695Y0063067D01*
X0185162Y0063534D01*
X0185629Y0063534D01*
X0186096Y0063067D01*
X0186096Y0062133D01*
X0186564Y0061665D01*
X0187031Y0061665D01*
X0187498Y0062133D01*
X0187498Y0063067D01*
X0187031Y0063534D01*
X0186564Y0064612D02*
X0186564Y0065546D01*
X0187031Y0065079D02*
X0185162Y0065079D01*
X0184695Y0065546D01*
X0184695Y0066576D02*
X0186564Y0066576D01*
X0186564Y0067510D02*
X0185629Y0066576D01*
X0186564Y0067510D02*
X0186564Y0067978D01*
X0185162Y0069032D02*
X0185629Y0069499D01*
X0185629Y0070900D01*
X0186096Y0070900D02*
X0184695Y0070900D01*
X0184695Y0069499D01*
X0185162Y0069032D01*
X0186564Y0069499D02*
X0186564Y0070433D01*
X0186096Y0070900D01*
X0186564Y0071978D02*
X0186564Y0072912D01*
X0187031Y0072445D02*
X0185162Y0072445D01*
X0184695Y0072912D01*
X0185162Y0074410D02*
X0184695Y0074877D01*
X0185162Y0074410D02*
X0187031Y0074410D01*
X0186564Y0073943D02*
X0186564Y0074877D01*
X0186096Y0075907D02*
X0185162Y0075907D01*
X0184695Y0076374D01*
X0184695Y0077308D01*
X0185162Y0077775D01*
X0186096Y0077775D01*
X0186564Y0077308D01*
X0186564Y0076374D01*
X0186096Y0075907D01*
X0181764Y0075835D02*
X0181296Y0075368D01*
X0179895Y0075368D01*
X0179895Y0076302D02*
X0181296Y0076302D01*
X0181764Y0075835D01*
X0181296Y0075368D02*
X0181764Y0074901D01*
X0181764Y0074434D01*
X0179895Y0074434D01*
X0179895Y0073427D02*
X0179895Y0072960D01*
X0180362Y0072960D01*
X0180362Y0073427D01*
X0179895Y0073427D01*
X0181764Y0071906D02*
X0181764Y0071439D01*
X0180829Y0070505D01*
X0179895Y0070505D02*
X0181764Y0070505D01*
X0179895Y0069475D02*
X0179895Y0068541D01*
X0179895Y0069008D02*
X0181764Y0069008D01*
X0181764Y0068541D01*
X0182698Y0069008D02*
X0183165Y0069008D01*
X0181296Y0067462D02*
X0179895Y0067462D01*
X0179895Y0066061D01*
X0180362Y0065594D01*
X0180829Y0066061D01*
X0180829Y0067462D01*
X0181296Y0067462D02*
X0181764Y0066995D01*
X0181764Y0066061D01*
X0177898Y0061078D02*
X0177431Y0060144D01*
X0176496Y0059210D01*
X0176496Y0060611D01*
X0176029Y0061078D01*
X0175562Y0061078D01*
X0175095Y0060611D01*
X0175095Y0059677D01*
X0175562Y0059210D01*
X0176496Y0059210D01*
X0181764Y0049855D02*
X0181296Y0049388D01*
X0181296Y0077380D02*
X0180362Y0077380D01*
X0179895Y0077847D01*
X0179895Y0078781D01*
X0180829Y0079248D02*
X0180829Y0077380D01*
X0181296Y0077380D02*
X0181764Y0077847D01*
X0181764Y0078781D01*
X0181296Y0079248D01*
X0180829Y0079248D01*
X0184695Y0078853D02*
X0186564Y0078853D01*
X0186564Y0080255D01*
X0186096Y0080722D01*
X0184695Y0080722D01*
D11*
X0019627Y0009101D02*
X0019627Y0007967D01*
X0020194Y0007400D01*
X0021328Y0007400D01*
X0021895Y0007967D01*
X0021895Y0009101D02*
X0020761Y0009669D01*
X0020194Y0009669D01*
X0019627Y0009101D01*
X0019627Y0010803D02*
X0021895Y0010803D01*
X0021895Y0009101D01*
X0030514Y0019238D02*
X0032876Y0019238D01*
X0032876Y0023962D02*
X0030514Y0023962D01*
X0025895Y0037900D02*
X0023627Y0037900D01*
X0024761Y0037900D02*
X0024761Y0041303D01*
X0025895Y0040169D01*
X0022212Y0040736D02*
X0021645Y0041303D01*
X0020511Y0041303D01*
X0019944Y0040736D01*
X0019944Y0040169D01*
X0022212Y0037900D01*
X0019944Y0037900D01*
X0091833Y0023781D02*
X0091833Y0021419D01*
X0096557Y0021419D02*
X0096557Y0023781D01*
X0100514Y0034238D02*
X0102876Y0034238D01*
X0102876Y0038962D02*
X0100514Y0038962D01*
X0100376Y0041738D02*
X0098014Y0041738D01*
X0098014Y0046462D02*
X0100376Y0046462D01*
X0096876Y0057238D02*
X0094514Y0057238D01*
X0103333Y0060419D02*
X0103333Y0062781D01*
X0108057Y0062781D02*
X0108057Y0060419D01*
X0096876Y0061962D02*
X0094514Y0061962D01*
X0092833Y0067419D02*
X0092833Y0069781D01*
X0097557Y0069781D02*
X0097557Y0067419D01*
X0108014Y0076738D02*
X0110376Y0076738D01*
X0110376Y0081462D02*
X0108014Y0081462D01*
X0151833Y0056781D02*
X0151833Y0054419D01*
X0156557Y0054419D02*
X0156557Y0056781D01*
D12*
X0150465Y0057351D02*
X0150465Y0055950D01*
X0150115Y0055600D01*
X0149414Y0055600D01*
X0149064Y0055950D01*
X0148255Y0055950D02*
X0147905Y0055600D01*
X0147204Y0055600D01*
X0146854Y0055950D01*
X0146854Y0056301D01*
X0147204Y0056651D01*
X0148255Y0056651D01*
X0148255Y0055950D01*
X0148255Y0056651D02*
X0147555Y0057351D01*
X0146854Y0057702D01*
X0149064Y0057351D02*
X0149414Y0057702D01*
X0150115Y0057702D01*
X0150465Y0057351D01*
X0148845Y0049001D02*
X0148845Y0047600D01*
X0149545Y0048301D02*
X0148144Y0048301D01*
X0139545Y0048301D02*
X0138144Y0048301D01*
X0129545Y0049352D02*
X0129545Y0047250D01*
X0128494Y0047250D01*
X0128144Y0047600D01*
X0128144Y0049001D01*
X0128494Y0049352D01*
X0129545Y0049352D01*
X0113045Y0058350D02*
X0112695Y0058000D01*
X0111994Y0058000D01*
X0111644Y0058350D01*
X0110835Y0058000D02*
X0109434Y0058000D01*
X0110135Y0058000D02*
X0110135Y0060102D01*
X0110835Y0059401D01*
X0111644Y0059751D02*
X0111994Y0060102D01*
X0112695Y0060102D01*
X0113045Y0059751D01*
X0113045Y0058350D01*
X0097465Y0055351D02*
X0097465Y0053950D01*
X0097115Y0053600D01*
X0096414Y0053600D01*
X0096064Y0053950D01*
X0095255Y0053950D02*
X0094905Y0053600D01*
X0094204Y0053600D01*
X0093854Y0053950D01*
X0093854Y0054651D01*
X0094204Y0055001D01*
X0094555Y0055001D01*
X0095255Y0054651D01*
X0095255Y0055702D01*
X0093854Y0055702D01*
X0096064Y0055351D02*
X0096414Y0055702D01*
X0097115Y0055702D01*
X0097465Y0055351D01*
X0092615Y0045702D02*
X0091914Y0045702D01*
X0091564Y0045351D01*
X0090755Y0045351D02*
X0090405Y0045702D01*
X0089704Y0045702D01*
X0089354Y0045351D01*
X0089354Y0045001D01*
X0090755Y0043600D01*
X0089354Y0043600D01*
X0091564Y0043950D02*
X0091914Y0043600D01*
X0092615Y0043600D01*
X0092965Y0043950D01*
X0092965Y0045351D01*
X0092615Y0045702D01*
X0091704Y0037202D02*
X0092755Y0036151D01*
X0091354Y0036151D01*
X0091704Y0035100D02*
X0091704Y0037202D01*
X0093564Y0036851D02*
X0093564Y0036151D01*
X0093914Y0035801D01*
X0094965Y0035801D01*
X0094264Y0035801D02*
X0093564Y0035100D01*
X0094965Y0035100D02*
X0094965Y0037202D01*
X0093914Y0037202D01*
X0093564Y0036851D01*
X0062045Y0047750D02*
X0060994Y0047750D01*
X0060644Y0048100D01*
X0060644Y0048451D01*
X0060994Y0048801D01*
X0062045Y0048801D01*
X0060994Y0048801D02*
X0060644Y0049151D01*
X0060644Y0049501D01*
X0060994Y0049852D01*
X0062045Y0049852D01*
X0062045Y0047750D01*
X0052045Y0048250D02*
X0052045Y0050352D01*
X0050994Y0050352D01*
X0050644Y0050001D01*
X0050644Y0049301D01*
X0050994Y0048951D01*
X0052045Y0048951D01*
X0051345Y0048951D02*
X0050644Y0048250D01*
X0042045Y0048600D02*
X0041695Y0048250D01*
X0040994Y0048250D01*
X0040644Y0048600D01*
X0040644Y0049301D01*
X0041345Y0049301D01*
X0042045Y0050001D02*
X0042045Y0048600D01*
X0042045Y0050001D02*
X0041695Y0050352D01*
X0040994Y0050352D01*
X0040644Y0050001D01*
X0087934Y0073500D02*
X0089335Y0073500D01*
X0088635Y0073500D02*
X0088635Y0075602D01*
X0089335Y0074901D01*
X0090144Y0075251D02*
X0090144Y0074551D01*
X0090494Y0074201D01*
X0091545Y0074201D01*
X0090845Y0074201D02*
X0090144Y0073500D01*
X0091545Y0073500D02*
X0091545Y0075602D01*
X0090494Y0075602D01*
X0090144Y0075251D01*
X0109854Y0074151D02*
X0111255Y0074151D01*
X0110204Y0075202D01*
X0110204Y0073100D01*
X0112064Y0073450D02*
X0112414Y0073100D01*
X0113115Y0073100D01*
X0113465Y0073450D01*
X0113465Y0074851D01*
X0113115Y0075202D01*
X0112414Y0075202D01*
X0112064Y0074851D01*
X0168934Y0069801D02*
X0170335Y0069801D01*
X0169635Y0070501D02*
X0169635Y0069100D01*
X0171144Y0069100D02*
X0171144Y0070501D01*
X0171494Y0070852D01*
X0172545Y0070852D01*
X0172545Y0068750D01*
X0171494Y0068750D01*
X0171144Y0069100D01*
X0171494Y0060852D02*
X0172545Y0060852D01*
X0172545Y0058750D01*
X0171494Y0058750D01*
X0171144Y0059100D01*
X0171144Y0060501D01*
X0171494Y0060852D01*
X0170335Y0059801D02*
X0168934Y0059801D01*
X0170845Y0050001D02*
X0170845Y0048600D01*
X0171545Y0049301D02*
X0170144Y0049301D01*
X0170144Y0079301D02*
X0171545Y0079301D01*
X0095965Y0015702D02*
X0094914Y0015702D01*
X0094564Y0015351D01*
X0094564Y0014651D01*
X0094914Y0014301D01*
X0095965Y0014301D01*
X0095264Y0014301D02*
X0094564Y0013600D01*
X0093755Y0013950D02*
X0093405Y0013600D01*
X0092704Y0013600D01*
X0092354Y0013950D01*
X0092354Y0014651D01*
X0092704Y0015001D01*
X0093055Y0015001D01*
X0093755Y0014651D01*
X0093755Y0015702D01*
X0092354Y0015702D01*
X0095965Y0015702D02*
X0095965Y0013600D01*
X0024465Y0020100D02*
X0024465Y0022202D01*
X0023414Y0022202D01*
X0023064Y0021851D01*
X0023064Y0021151D01*
X0023414Y0020801D01*
X0024465Y0020801D01*
X0023764Y0020801D02*
X0023064Y0020100D01*
X0022255Y0020100D02*
X0020854Y0021501D01*
X0020854Y0021851D01*
X0021204Y0022202D01*
X0021905Y0022202D01*
X0022255Y0021851D01*
X0022255Y0020100D02*
X0020854Y0020100D01*
D13*
X0033844Y0029251D02*
X0035651Y0027444D01*
X0039222Y0027444D01*
X0031647Y0035019D01*
X0029862Y0035019D01*
X0033649Y0031232D01*
X0033844Y0031036D01*
X0033844Y0029251D01*
X0033902Y0029193D02*
X0037473Y0029193D01*
X0037672Y0028995D02*
X0034101Y0028995D01*
X0034299Y0028796D02*
X0037870Y0028796D01*
X0038069Y0028598D02*
X0034498Y0028598D01*
X0034696Y0028399D02*
X0038267Y0028399D01*
X0038466Y0028201D02*
X0034895Y0028201D01*
X0035093Y0028002D02*
X0038664Y0028002D01*
X0038863Y0027803D02*
X0035292Y0027803D01*
X0035490Y0027605D02*
X0039061Y0027605D01*
X0040904Y0027444D02*
X0042516Y0029057D01*
X0042516Y0031036D01*
X0041058Y0032494D01*
X0036452Y0032494D01*
X0033927Y0035019D01*
X0042516Y0035019D01*
X0045709Y0031826D01*
X0045709Y0030076D01*
X0045041Y0029423D01*
X0043016Y0027444D01*
X0040904Y0027444D01*
X0041065Y0027605D02*
X0043180Y0027605D01*
X0043383Y0027803D02*
X0041263Y0027803D01*
X0041462Y0028002D02*
X0043587Y0028002D01*
X0043790Y0028201D02*
X0041660Y0028201D01*
X0041859Y0028399D02*
X0043993Y0028399D01*
X0044196Y0028598D02*
X0042057Y0028598D01*
X0042256Y0028796D02*
X0044399Y0028796D01*
X0044602Y0028995D02*
X0042454Y0028995D01*
X0042516Y0029193D02*
X0044805Y0029193D01*
X0045009Y0029392D02*
X0042516Y0029392D01*
X0042516Y0029590D02*
X0045212Y0029590D01*
X0045041Y0029423D02*
X0045041Y0029423D01*
X0045415Y0029789D02*
X0042516Y0029789D01*
X0042516Y0029987D02*
X0045618Y0029987D01*
X0045709Y0030186D02*
X0042516Y0030186D01*
X0042516Y0030384D02*
X0045709Y0030384D01*
X0045709Y0030583D02*
X0042516Y0030583D01*
X0042516Y0030781D02*
X0045709Y0030781D01*
X0045709Y0030980D02*
X0042516Y0030980D01*
X0042375Y0031178D02*
X0045709Y0031178D01*
X0045709Y0031377D02*
X0042176Y0031377D01*
X0041977Y0031575D02*
X0045709Y0031575D01*
X0045709Y0031774D02*
X0041779Y0031774D01*
X0041580Y0031972D02*
X0045563Y0031972D01*
X0045365Y0032171D02*
X0041382Y0032171D01*
X0041183Y0032369D02*
X0045166Y0032369D01*
X0044968Y0032568D02*
X0036378Y0032568D01*
X0036180Y0032766D02*
X0044769Y0032766D01*
X0044571Y0032965D02*
X0035981Y0032965D01*
X0035783Y0033163D02*
X0044372Y0033163D01*
X0044174Y0033362D02*
X0035584Y0033362D01*
X0035386Y0033560D02*
X0043975Y0033560D01*
X0043777Y0033759D02*
X0035187Y0033759D01*
X0034989Y0033957D02*
X0043578Y0033957D01*
X0043379Y0034156D02*
X0034790Y0034156D01*
X0034592Y0034354D02*
X0043181Y0034354D01*
X0042982Y0034553D02*
X0034393Y0034553D01*
X0034195Y0034751D02*
X0042784Y0034751D01*
X0042585Y0034950D02*
X0033996Y0034950D01*
X0032907Y0033759D02*
X0031122Y0033759D01*
X0030923Y0033957D02*
X0032709Y0033957D01*
X0032510Y0034156D02*
X0030725Y0034156D01*
X0030526Y0034354D02*
X0032312Y0034354D01*
X0032113Y0034553D02*
X0030328Y0034553D01*
X0030129Y0034751D02*
X0031915Y0034751D01*
X0031716Y0034950D02*
X0029931Y0034950D01*
X0031320Y0033560D02*
X0033106Y0033560D01*
X0033304Y0033362D02*
X0031519Y0033362D01*
X0031717Y0033163D02*
X0033503Y0033163D01*
X0033701Y0032965D02*
X0031916Y0032965D01*
X0032114Y0032766D02*
X0033900Y0032766D01*
X0034098Y0032568D02*
X0032313Y0032568D01*
X0032512Y0032369D02*
X0034297Y0032369D01*
X0034495Y0032171D02*
X0032710Y0032171D01*
X0032909Y0031972D02*
X0034694Y0031972D01*
X0034892Y0031774D02*
X0033107Y0031774D01*
X0033306Y0031575D02*
X0035091Y0031575D01*
X0035289Y0031377D02*
X0033504Y0031377D01*
X0033703Y0031178D02*
X0035488Y0031178D01*
X0035686Y0030980D02*
X0033844Y0030980D01*
X0033844Y0030781D02*
X0035885Y0030781D01*
X0036083Y0030583D02*
X0033844Y0030583D01*
X0033844Y0030384D02*
X0036282Y0030384D01*
X0036480Y0030186D02*
X0033844Y0030186D01*
X0033844Y0029987D02*
X0036679Y0029987D01*
X0036878Y0029789D02*
X0033844Y0029789D01*
X0033844Y0029590D02*
X0037076Y0029590D01*
X0037275Y0029392D02*
X0033844Y0029392D01*
X0042413Y0024627D02*
X0047372Y0024627D01*
X0046664Y0024429D02*
X0042210Y0024429D01*
X0042007Y0024230D02*
X0045956Y0024230D01*
X0045248Y0024032D02*
X0041804Y0024032D01*
X0041600Y0023833D02*
X0044540Y0023833D01*
X0043832Y0023635D02*
X0041397Y0023635D01*
X0041194Y0023436D02*
X0043124Y0023436D01*
X0042416Y0023238D02*
X0040991Y0023238D01*
X0040788Y0023039D02*
X0041708Y0023039D01*
X0041000Y0022841D02*
X0040585Y0022841D01*
X0040418Y0022678D02*
X0047321Y0029423D01*
X0047321Y0031036D01*
X0048933Y0030106D01*
X0048933Y0028796D01*
X0051358Y0027396D01*
X0053284Y0027396D01*
X0053284Y0026285D01*
X0040418Y0022678D01*
X0042616Y0024826D02*
X0048080Y0024826D01*
X0048788Y0025024D02*
X0042819Y0025024D01*
X0043022Y0025223D02*
X0049497Y0025223D01*
X0050205Y0025421D02*
X0043226Y0025421D01*
X0043429Y0025620D02*
X0050913Y0025620D01*
X0051621Y0025818D02*
X0043632Y0025818D01*
X0043835Y0026017D02*
X0052329Y0026017D01*
X0053037Y0026215D02*
X0044038Y0026215D01*
X0044241Y0026414D02*
X0053284Y0026414D01*
X0053284Y0026612D02*
X0044444Y0026612D01*
X0044648Y0026811D02*
X0053284Y0026811D01*
X0053284Y0027009D02*
X0044851Y0027009D01*
X0045054Y0027208D02*
X0053284Y0027208D01*
X0054896Y0027208D02*
X0056577Y0027208D01*
X0055869Y0027009D02*
X0054896Y0027009D01*
X0054896Y0026811D02*
X0055161Y0026811D01*
X0054896Y0026737D02*
X0057421Y0027444D01*
X0057421Y0032494D01*
X0053047Y0035019D01*
X0049846Y0035019D01*
X0048234Y0033407D01*
X0046408Y0033407D01*
X0047321Y0032494D01*
X0052371Y0032494D01*
X0054896Y0031036D01*
X0054896Y0026737D01*
X0054896Y0027406D02*
X0057285Y0027406D01*
X0057421Y0027605D02*
X0054896Y0027605D01*
X0054896Y0027803D02*
X0057421Y0027803D01*
X0057421Y0028002D02*
X0054896Y0028002D01*
X0054896Y0028201D02*
X0057421Y0028201D01*
X0057421Y0028399D02*
X0054896Y0028399D01*
X0054896Y0028598D02*
X0057421Y0028598D01*
X0057421Y0028796D02*
X0054896Y0028796D01*
X0054896Y0028995D02*
X0057421Y0028995D01*
X0057421Y0029193D02*
X0054896Y0029193D01*
X0054896Y0029392D02*
X0057421Y0029392D01*
X0057421Y0029590D02*
X0054896Y0029590D01*
X0054896Y0029789D02*
X0057421Y0029789D01*
X0057421Y0029987D02*
X0054896Y0029987D01*
X0054896Y0030186D02*
X0057421Y0030186D01*
X0057421Y0030384D02*
X0054896Y0030384D01*
X0054896Y0030583D02*
X0057421Y0030583D01*
X0057421Y0030781D02*
X0054896Y0030781D01*
X0054896Y0030980D02*
X0057421Y0030980D01*
X0057421Y0031178D02*
X0054650Y0031178D01*
X0054306Y0031377D02*
X0057421Y0031377D01*
X0057421Y0031575D02*
X0053963Y0031575D01*
X0053619Y0031774D02*
X0057421Y0031774D01*
X0057421Y0031972D02*
X0053275Y0031972D01*
X0052931Y0032171D02*
X0057421Y0032171D01*
X0057421Y0032369D02*
X0052587Y0032369D01*
X0053855Y0034553D02*
X0049380Y0034553D01*
X0049578Y0034751D02*
X0053511Y0034751D01*
X0053167Y0034950D02*
X0049777Y0034950D01*
X0049181Y0034354D02*
X0054199Y0034354D01*
X0054543Y0034156D02*
X0048983Y0034156D01*
X0048784Y0033957D02*
X0054886Y0033957D01*
X0055230Y0033759D02*
X0048586Y0033759D01*
X0048387Y0033560D02*
X0055574Y0033560D01*
X0055918Y0033362D02*
X0046454Y0033362D01*
X0046652Y0033163D02*
X0056262Y0033163D01*
X0056606Y0032965D02*
X0046851Y0032965D01*
X0047049Y0032766D02*
X0056949Y0032766D01*
X0057293Y0032568D02*
X0047248Y0032568D01*
X0047321Y0030980D02*
X0047419Y0030980D01*
X0047321Y0030781D02*
X0047763Y0030781D01*
X0048107Y0030583D02*
X0047321Y0030583D01*
X0047321Y0030384D02*
X0048451Y0030384D01*
X0048795Y0030186D02*
X0047321Y0030186D01*
X0047321Y0029987D02*
X0048933Y0029987D01*
X0048933Y0029789D02*
X0047321Y0029789D01*
X0047321Y0029590D02*
X0048933Y0029590D01*
X0048933Y0029392D02*
X0047289Y0029392D01*
X0047085Y0029193D02*
X0048933Y0029193D01*
X0048933Y0028995D02*
X0046882Y0028995D01*
X0046679Y0028796D02*
X0048934Y0028796D01*
X0049277Y0028598D02*
X0046476Y0028598D01*
X0046273Y0028399D02*
X0049621Y0028399D01*
X0049965Y0028201D02*
X0046070Y0028201D01*
X0045867Y0028002D02*
X0050309Y0028002D01*
X0050653Y0027803D02*
X0045663Y0027803D01*
X0045460Y0027605D02*
X0050997Y0027605D01*
X0051340Y0027406D02*
X0045257Y0027406D01*
M02*
